<?xml version="1.0" standalone="no"?>
<!DOCTYPE svg PUBLIC "-//W3C//DTD SVG 20010904//EN"
 "http://www.w3.org/TR/2001/REC-SVG-20010904/DTD/svg10.dtd">
<svg version="1.0" xmlns="http://www.w3.org/2000/svg"
 width="540.000000pt" height="540.000000pt" viewBox="0 0 540.000000 540.000000"
 preserveAspectRatio="xMidYMid meet">

<g transform="translate(0.000000,540.000000) scale(0.100000,-0.100000)"
fill="#000000" stroke="none">
<path d="M1812 5385 c-21 -9 -31 -19 -26 -26 4 -7 0 -18 -10 -24 -13 -10 -14
-18 -6 -39 7 -18 7 -33 0 -46 -5 -10 -10 -30 -10 -44 0 -26 -7 -30 -77 -41
-45 -7 -57 -23 -23 -32 25 -7 26 -30 3 -57 -10 -12 -1 -5 20 14 37 34 38 34
44 12 3 -12 9 -22 14 -22 5 0 9 -4 9 -10 0 -5 -8 -10 -19 -10 -12 0 -18 -7
-17 -17 1 -14 -8 -19 -34 -21 -23 -3 -43 -13 -61 -33 l-26 -29 -25 23 -26 24
-50 -66 c-37 -48 -48 -69 -40 -78 12 -15 27 -16 48 -3 13 8 13 11 -2 22 -16
12 -15 16 13 48 30 35 30 35 25 8 -5 -20 -2 -28 8 -28 8 0 16 -7 20 -15 3 -9
0 -15 -8 -15 -7 0 -23 -11 -36 -25 -21 -23 -27 -39 -29 -87 -1 -9 -14 -25 -30
-34 -37 -22 -48 -76 -24 -113 11 -17 13 -26 5 -29 -7 -2 -12 -8 -12 -13 0 -4
7 -6 15 -3 18 7 105 -17 105 -28 0 -4 -4 -8 -10 -8 -18 0 -44 -64 -50 -122
l-6 -57 31 -7 c40 -8 65 -32 65 -61 0 -13 7 -39 15 -59 10 -23 11 -42 5 -58
-8 -21 -3 -27 41 -55 49 -33 58 -44 39 -56 -14 -8 -12 -47 3 -65 7 -8 25 -21
40 -28 23 -10 28 -18 25 -40 -3 -23 -7 -27 -30 -25 -16 1 -28 -2 -28 -7 0 -6
8 -10 18 -10 9 0 28 -12 41 -25 16 -17 34 -25 57 -25 23 0 34 -4 32 -12 -4
-17 22 -78 32 -78 5 0 11 -13 15 -30 6 -26 10 -29 31 -24 19 5 24 2 24 -14 0
-16 5 -18 28 -14 15 2 32 11 39 19 6 8 16 12 22 9 11 -7 15 4 31 89 7 33 14
70 16 83 6 31 23 28 29 -5 3 -16 12 -48 21 -73 8 -25 30 -90 48 -145 18 -55
43 -124 55 -154 22 -54 82 -124 118 -135 10 -3 34 -21 51 -39 l33 -33 -36 -47
c-19 -25 -35 -51 -35 -57 0 -6 -11 -23 -25 -38 -14 -15 -28 -36 -31 -47 -4
-11 -24 -57 -45 -103 -22 -46 -39 -96 -39 -111 0 -15 -7 -51 -16 -80 -8 -30
-13 -65 -9 -78 4 -17 2 -23 -6 -17 -7 4 -10 2 -7 -7 6 -19 -30 -120 -90 -254
-28 -61 -68 -163 -91 -228 -22 -64 -46 -127 -52 -139 -49 -92 -350 -386 -420
-411 -15 -5 -16 18 -14 236 2 255 6 282 60 386 75 146 -182 -96 -271 -255 -20
-35 -44 -97 -54 -137 -25 -99 -37 -128 -67 -159 -35 -37 -93 -232 -95 -318 -1
-51 6 -81 30 -141 45 -111 120 -260 143 -286 42 -44 212 -83 367 -83 109 0
129 8 191 77 24 26 66 71 92 98 47 50 48 51 58 145 7 58 8 118 2 155 -10 73 3
198 28 264 19 52 105 183 244 376 48 66 87 129 87 140 0 22 56 71 86 77 23 4
24 -20 1 -107 -39 -154 -73 -425 -83 -661 -7 -151 19 -938 35 -1079 5 -38 7
-71 6 -73 -2 -2 -61 15 -133 37 -140 44 -205 55 -142 23 31 -15 35 -22 36 -57
1 -22 -4 -51 -11 -65 -12 -25 -10 -60 4 -60 4 0 15 -6 24 -12 15 -11 7 -12
-45 -10 -49 3 -64 1 -74 -13 -12 -16 -14 -15 -26 4 -7 12 -16 21 -21 21 -4 0
-5 -4 -2 -10 3 -6 -1 -7 -10 -4 -11 5 -13 10 -5 19 8 10 8 15 -1 20 -21 14 17
26 46 15 36 -14 48 -13 42 4 -4 9 1 16 11 19 14 3 12 6 -8 15 -14 6 -19 11
-12 11 23 2 13 51 -15 76 -16 13 -22 25 -15 25 6 0 12 -4 12 -10 0 -5 4 -10
10 -10 5 0 7 7 4 15 -9 23 -44 19 -44 -6 0 -11 -5 -17 -10 -14 -6 4 -7 12 -4
18 5 8 3 8 -7 0 -19 -18 -29 -16 -22 5 12 35 -33 -21 -65 -80 -26 -47 -28 -55
-12 -46 15 10 22 10 32 0 10 -10 10 -14 0 -21 -7 -4 -12 -12 -11 -17 0 -5 -2
-19 -6 -32 -5 -16 -13 -21 -26 -17 -13 4 -19 1 -19 -9 0 -8 6 -16 14 -18 12
-2 10 -13 -8 -56 -13 -29 -26 -53 -30 -53 -29 -1 -30 10 -6 82 36 109 39 120
31 114 -5 -2 -18 -33 -31 -67 -12 -35 -34 -82 -47 -106 -29 -49 -26 -58 15
-44 17 6 35 6 43 1 8 -5 626 -9 1422 -9 l1409 0 -7 43 c-4 23 -16 56 -26 73
-13 21 -25 81 -39 195 -11 90 -32 223 -45 294 -14 72 -32 175 -41 230 -21 130
-37 209 -68 325 -13 52 -30 138 -36 190 -12 107 -70 291 -125 401 -32 65 -81
143 -133 214 -34 47 -88 272 -96 397 -7 120 -26 197 -62 249 -14 20 -34 73
-44 118 -11 45 -25 91 -31 102 -6 11 -21 55 -34 97 -51 164 -76 224 -106 249
-37 31 -37 43 -1 43 33 0 62 27 62 56 0 11 -11 30 -25 42 -36 31 -31 46 21 61
45 13 134 88 134 112 0 6 15 9 33 7 22 -2 35 -10 42 -26 14 -31 47 -25 56 11
11 43 25 54 74 62 25 3 45 11 45 16 0 5 10 23 21 39 20 26 21 33 9 73 -14 51
-4 81 30 92 19 6 24 16 21 43 -1 6 3 12 9 12 7 0 9 8 5 19 -4 15 1 24 23 35
15 8 34 27 41 43 l13 28 -26 -24 c-22 -21 -26 -22 -26 -7 0 9 -3 15 -8 12 -4
-2 -16 2 -26 10 -15 11 -17 16 -7 28 8 10 9 16 1 21 -5 3 -10 15 -10 27 0 14
-5 18 -15 14 -8 -3 -15 -1 -15 4 0 6 9 10 20 10 16 0 19 5 14 28 -5 23 1 36
25 63 25 26 31 42 31 76 0 25 -5 43 -11 43 -8 0 -7 5 1 15 11 13 9 20 -9 38
-11 13 -21 31 -21 40 0 9 -5 17 -11 17 -5 0 -8 -4 -4 -9 3 -5 1 -12 -5 -16
-16 -10 -25 25 -11 46 10 17 8 21 -14 29 -17 7 -24 14 -18 22 4 7 7 26 8 43 0
18 5 29 12 28 15 -3 28 40 19 62 -3 9 -12 12 -23 8 -16 -6 -16 -5 -4 10 12 15
11 17 -11 17 -30 0 -69 27 -62 43 2 7 -6 26 -20 42 -25 29 -25 51 0 41 22 -8
44 4 44 25 0 21 25 26 33 7 4 -10 8 -10 16 2 12 17 4 33 -11 24 -7 -4 -8 -2
-4 4 14 23 44 13 56 -20 10 -25 14 -29 17 -15 3 10 -2 29 -11 42 -9 13 -16 30
-16 37 0 20 -70 80 -88 76 -10 -2 -18 -15 -20 -31 -2 -16 -9 -27 -19 -27 -12
0 -13 3 -4 14 10 12 9 20 -3 38 -24 37 -30 95 -11 105 13 7 13 13 3 36 -11 23
-17 26 -46 21 -39 -8 -62 9 -54 38 5 20 6 20 19 2 13 -18 14 -17 35 4 24 23
18 43 -6 23 -19 -16 -36 -6 -36 20 0 21 -29 26 -47 8 -8 -8 -10 4 -8 43 3 49
1 54 -23 66 -14 6 -32 12 -39 12 -20 0 -15 14 9 25 12 6 24 16 26 23 4 11 0
12 -19 2 -20 -11 -25 -10 -46 15 -13 15 -30 25 -37 22 -7 -3 -19 3 -26 14 -14
18 -46 18 -1005 18 -842 0 -995 -2 -1023 -14z m1583 -15 c3 -5 1 -10 -4 -10
-6 0 -11 5 -11 10 0 6 2 10 4 10 3 0 8 -4 11 -10z m-1581 -25 c-4 -8 -10 -15
-15 -15 -4 0 -6 7 -3 15 4 8 10 15 15 15 4 0 6 -7 3 -15z m203 -37 c-3 -8 -6
-5 -6 6 -1 11 2 17 5 13 3 -3 4 -12 1 -19z m-167 2 c0 -5 -4 -10 -10 -10 -5 0
-10 5 -10 10 0 6 5 10 10 10 6 0 10 -4 10 -10z m80 -29 c0 -12 -28 -22 -34
-12 -3 5 -3 11 1 15 9 9 33 7 33 -3z m1807 -37 c-9 -9 -28 6 -21 18 4 6 10 6
17 -1 6 -6 8 -13 4 -17z m190 -20 c-9 -9 -28 6 -21 18 4 6 10 6 17 -1 6 -6 8
-13 4 -17z m-1237 -24 c0 -5 -5 -10 -11 -10 -5 0 -7 5 -4 10 3 6 8 10 11 10 2
0 4 -4 4 -10z m1268 -29 c-7 -9 -14 -18 -15 -20 -2 -2 -3 5 -3 16 0 11 7 20
15 20 12 0 12 -3 3 -16z m-272 -38 c-10 -10 -19 5 -10 18 6 11 8 11 12 0 2 -7
1 -15 -2 -18z m-46 -31 c0 -13 -3 -12 -15 4 -19 25 -19 40 0 24 8 -7 15 -20
15 -28z m110 18 c0 -5 -2 -10 -4 -10 -3 0 -8 5 -11 10 -3 6 -1 10 4 10 6 0 11
-4 11 -10z m-479 -127 c13 -16 12 -17 -3 -4 -17 13 -22 21 -14 21 2 0 10 -8
17 -17z m-1591 -3 c0 -5 -7 -10 -15 -10 -9 0 -20 -11 -25 -25 -6 -17 -14 -23
-25 -19 -23 9 -14 24 25 46 40 21 40 21 40 8z m2439 -80 c1 -12 -2 -11 -15 2
-11 11 -14 23 -9 35 7 17 8 17 15 -2 5 -11 9 -27 9 -35z m-73 23 c23 -30 18
-43 -11 -30 -24 12 -31 27 -18 40 10 10 15 9 29 -10z m-2383 -30 c-3 -9 -9
-11 -15 -5 -5 5 -6 17 -2 26 5 13 9 14 14 5 5 -7 6 -19 3 -26z m-83 -73 c13
-9 13 -11 0 -20 -19 -13 -30 -13 -30 0 0 6 6 10 13 11 6 0 3 4 -8 9 -13 6 -15
9 -5 9 8 0 22 -4 30 -9z m-1 -136 c8 -7 -4 -12 -41 -19 -34 -6 -38 -5 -38 13
0 18 4 20 38 15 20 -3 39 -7 41 -9z m691 -9 c0 -16 -6 -25 -15 -25 -16 0 -19
9 -9 34 9 25 24 19 24 -9z m-770 -36 c0 -11 4 -19 9 -19 10 0 24 -30 17 -37
-2 -2 -15 -1 -30 3 -23 5 -26 11 -26 51 0 39 2 44 15 33 8 -7 15 -21 15 -31z
m806 -9 c-4 -25 -2 -40 4 -40 5 0 10 -4 10 -10 0 -5 18 -36 40 -68 32 -46 53
-65 97 -87 53 -26 62 -27 132 -20 130 14 260 9 282 -11 11 -9 19 -24 20 -33 0
-11 2 -12 6 -3 5 13 40 -43 47 -76 3 -18 8 -32 31 -92 82 -212 91 -250 75
-323 -12 -58 -53 -112 -118 -157 -62 -42 -172 -90 -255 -111 -45 -12 -87 -25
-93 -30 -6 -5 -35 -16 -64 -25 -49 -14 -56 -14 -97 1 -78 30 -189 200 -300
459 -52 122 -63 182 -51 269 11 74 34 111 51 81 12 -21 73 -18 97 6 46 46 52
117 16 165 -18 24 -22 35 -14 43 9 9 8 18 0 37 -11 24 -10 25 23 25 28 0 35 4
35 20 0 12 7 20 16 20 14 0 15 -7 10 -40z m1241 -17 c-3 -3 -11 -2 -17 2 -9 6
-9 10 1 16 14 8 27 -7 16 -18z m-1987 1 c0 -8 -4 -12 -10 -9 -5 3 -10 10 -10
16 0 5 5 9 10 9 6 0 10 -7 10 -16z m2650 -28 c0 -3 -4 -16 -10 -31 -8 -22 -13
-24 -30 -15 -22 12 -27 36 -7 43 15 7 47 8 47 3z m-1596 -42 c8 -22 8 -24 -8
-24 -15 0 -28 24 -19 34 11 10 21 7 27 -10z m-535 -18 c10 -12 9 -20 -4 -40
-20 -30 -33 -33 -42 -10 -6 17 12 64 26 64 5 0 14 -6 20 -14z m-505 -48 c4
-18 7 -43 6 -55 0 -14 6 -23 15 -23 24 0 37 -36 19 -54 -18 -18 -30 -20 -39
-6 -3 6 -15 10 -26 10 -26 0 -42 44 -33 95 11 70 47 90 58 33z m586 -59 c0
-10 -30 -20 -41 -13 -13 7 -11 28 3 42 10 10 15 9 25 -5 7 -9 13 -20 13 -24z
m2140 -216 c0 -22 -17 -49 -25 -41 -8 8 5 58 16 58 5 0 9 -8 9 -17z m-44 -32
c-9 -13 -36 -15 -36 -2 0 5 3 17 6 26 6 15 8 15 22 2 8 -8 11 -20 8 -26z
m-2548 -4 c2 -10 -3 -17 -12 -17 -18 0 -29 16 -21 31 9 14 29 6 33 -14z m2547
-27 c3 -5 1 -10 -4 -10 -6 0 -11 5 -11 10 0 6 2 10 4 10 3 0 8 -4 11 -10z
m-2537 -117 c2 -8 -5 -13 -17 -13 -12 0 -21 6 -21 16 0 18 31 15 38 -3z m2556
-42 c4 -5 1 -22 -4 -37 -14 -35 -34 -18 -24 20 6 26 18 33 28 17z m-1791 -764
c-2 -4 -2 -15 2 -25 5 -14 7 -14 15 -2 5 8 12 12 15 8 4 -3 0 -17 -9 -30 -8
-12 -17 -34 -20 -48 -7 -41 -17 -60 -32 -60 -8 0 -14 8 -14 18 -1 42 -30 -54
-32 -108 -3 -60 -17 -83 -19 -32 -4 65 5 102 44 187 22 50 40 99 39 110 -1 15
1 17 8 5 5 -8 6 -18 3 -23z m71 4 c3 -5 -1 -14 -9 -21 -13 -10 -15 -9 -15 9 0
21 14 28 24 12z m-84 -196 c0 -14 -40 -48 -48 -40 -2 2 -2 15 1 27 7 26 47 37
47 13z m-124 -150 c-9 -13 -16 -36 -16 -49 0 -26 -39 -118 -52 -124 -5 -2 -8
-10 -8 -18 0 -8 -7 -17 -15 -20 -8 -4 -15 -10 -15 -15 0 -6 -10 -23 -22 -39
l-22 -30 22 -23 c24 -26 16 -51 -18 -53 -17 -1 -20 5 -20 35 0 53 18 107 46
141 14 16 24 36 21 42 -5 15 18 65 44 93 10 11 28 43 41 70 15 34 23 44 26 32
2 -10 -3 -29 -12 -42z m58 10 c-4 -8 -8 -15 -10 -15 -2 0 -4 7 -4 15 0 8 4 15
10 15 5 0 7 -7 4 -15z m-84 -257 c6 -24 13 -50 15 -58 2 -8 6 -43 9 -77 3 -34
8 -72 11 -85 3 -13 1 -30 -5 -38 -9 -13 -11 -13 -20 0 -5 8 -10 26 -11 40 0
14 -2 36 -4 50 -1 14 3 31 9 39 9 12 8 13 -6 8 -25 -9 -34 14 -12 31 14 11 15
13 3 9 -21 -7 -39 11 -39 38 0 15 -3 16 -9 7 -6 -10 -10 -7 -13 12 -3 16 2 32
14 46 29 31 46 25 58 -22z m168 -146 c9 -26 8 -41 -3 -68 -8 -19 -16 -34 -19
-34 -4 0 -6 35 -6 77 0 79 8 86 28 25z m-514 -2147 c-7 -16 -24 -21 -24 -6 0
8 7 13 27 20 1 1 0 -6 -3 -14z m-28 -223 c-2 -4 9 -14 25 -21 16 -7 29 -17 29
-22 0 -18 -51 -61 -65 -55 -8 3 -15 0 -15 -6 0 -6 -3 -9 -6 -6 -6 6 24 58 39
69 5 4 1 11 -8 17 -15 8 -14 32 1 32 3 0 3 -4 0 -8z m179 -72 c3 -5 1 -10 -4
-10 -6 0 -11 5 -11 10 0 6 2 10 4 10 3 0 8 -4 11 -10z"/>
<path d="M2331 4216 c-9 -11 -2 -17 38 -30 61 -20 71 -20 71 -2 0 36 -85 61
-109 32z"/>
<path d="M2230 4181 c0 -23 14 -41 31 -41 25 0 24 26 0 40 -24 12 -31 13 -31
1z"/>
<path d="M2395 3973 c-16 -3 -35 -9 -42 -15 -7 -5 -16 -7 -22 -4 -5 3 -11 -1
-15 -9 -3 -8 -12 -12 -19 -9 -10 3 -16 -4 -19 -23 -3 -15 -9 -36 -13 -45 -9
-22 21 -25 44 -4 9 8 36 18 61 24 25 6 63 15 85 21 22 5 77 11 123 12 124 4
122 28 -3 41 -38 4 -88 9 -110 11 -22 3 -53 3 -70 0z"/>
<path d="M2397 3833 c-25 -25 11 -44 43 -23 13 9 13 11 0 20 -18 11 -34 13
-43 3z"/>
<path d="M2433 3793 c-24 -9 -13 -23 17 -23 32 0 40 14 14 24 -9 3 -16 6 -17
5 -1 0 -8 -3 -14 -6z"/>
<path d="M3940 5385 c0 -9 5 -15 11 -13 6 2 11 8 11 13 0 5 -5 11 -11 13 -6 2
-11 -4 -11 -13z"/>
<path d="M1655 5370 c-3 -5 -2 -10 4 -10 5 0 13 5 16 10 3 6 2 10 -4 10 -5 0
-13 -4 -16 -10z"/>
<path d="M3997 5293 c-3 -3 5 -16 18 -29 36 -36 61 -30 32 7 -14 17 -42 30
-50 22z"/>
<path d="M4051 5204 c0 -11 3 -14 6 -6 3 7 2 16 -1 19 -3 4 -6 -2 -5 -13z"/>
<path d="M4158 4976 c-22 -16 -23 -26 -3 -26 8 0 15 -4 15 -10 0 -5 5 -10 11
-10 8 0 8 5 -1 15 -10 12 -10 18 0 30 15 18 1 19 -22 1z"/>
<path d="M2020 3650 c-6 -11 -20 -20 -31 -20 -17 0 -18 -3 -9 -20 6 -12 21
-20 35 -20 22 0 25 4 25 40 0 45 -4 49 -20 20z"/>
<path d="M2011 3521 c-10 -6 -9 -10 3 -14 8 -3 18 -2 21 3 8 13 -9 20 -24 11z"/>
<path d="M2011 3433 c-15 -36 -12 -64 7 -71 11 -3 12 0 4 15 -7 12 -7 25 0 36
5 10 8 25 6 35 -2 12 -7 8 -17 -15z"/>
<path d="M1831 541 c-13 -9 -76 -290 -66 -299 3 -3 5 2 5 10 0 8 13 42 30 74
16 32 30 65 30 72 0 7 8 27 17 45 26 50 15 117 -16 98z"/>
</g>
</svg>
