<?xml version="1.0" standalone="no"?>
<!DOCTYPE svg PUBLIC "-//W3C//DTD SVG 20010904//EN"
 "http://www.w3.org/TR/2001/REC-SVG-20010904/DTD/svg10.dtd">
<svg version="1.0" xmlns="http://www.w3.org/2000/svg"
 width="540.000000pt" height="540.000000pt" viewBox="0 0 540.000000 540.000000"
 preserveAspectRatio="xMidYMid meet">

<g transform="translate(0.000000,540.000000) scale(0.100000,-0.100000)"
fill="#000000" stroke="none">
<path d="M2257 5384 c4 -12 -6 -27 -31 -50 -33 -29 -35 -34 -19 -43 17 -9 16
-12 -11 -40 -17 -17 -24 -31 -18 -31 15 0 6 -66 -12 -95 -7 -11 -14 -23 -14
-28 -1 -4 -8 -20 -15 -35 -11 -20 -15 -78 -16 -216 -2 -150 -6 -207 -22 -274
-11 -46 -19 -98 -17 -115 2 -23 9 -5 22 61 10 50 22 92 27 92 5 0 9 -6 9 -12
0 -7 7 -4 16 7 12 17 26 20 82 20 78 -1 130 -16 165 -49 l25 -24 -87 -1 c-111
-2 -142 -11 -161 -44 -13 -24 -13 -29 0 -37 8 -5 18 -6 23 -3 6 3 23 6 39 5
24 -1 27 2 18 13 -9 11 -5 17 19 30 29 14 36 13 32 -9 -1 -4 1 -17 4 -27 5
-15 16 -19 55 -19 34 0 52 5 58 15 11 20 39 10 48 -17 5 -16 8 -17 14 -7 5 7
6 17 4 21 -3 4 0 8 6 8 7 0 10 6 7 14 -3 8 -1 17 6 19 8 3 5 12 -9 28 -12 13
-24 37 -28 52 -5 23 -19 34 -69 56 -34 15 -90 33 -124 40 -64 12 -80 9 -125
-28 -23 -18 -22 -11 2 68 12 36 22 90 24 120 2 31 8 67 14 81 5 14 18 45 27
70 28 73 37 92 73 153 33 57 52 72 52 41 0 -10 6 -14 15 -10 8 3 15 1 15 -4 0
-6 5 -10 11 -10 7 0 17 -7 23 -15 10 -14 41 -19 93 -13 12 1 20 4 17 7 -2 2
13 14 33 26 l38 22 45 -24 c25 -12 57 -36 72 -52 21 -22 34 -27 54 -23 18 3
30 0 36 -12 5 -9 17 -16 27 -16 10 0 34 -11 54 -24 19 -13 38 -22 41 -18 3 3
6 0 6 -6 0 -6 7 -9 15 -6 8 4 15 1 15 -5 0 -6 7 -11 15 -11 8 0 15 -4 15 -9 0
-5 15 -16 33 -25 41 -20 71 -46 80 -68 4 -11 12 -15 22 -12 10 4 22 -1 31 -15
8 -11 24 -21 34 -21 23 0 46 -68 30 -84 -15 -15 -12 -26 7 -26 15 0 14 -2 -3
-16 -13 -11 -15 -17 -6 -20 17 -8 15 -29 -9 -75 -11 -23 -16 -38 -11 -35 8 5
22 -14 22 -29 0 -7 -56 1 -70 10 -8 5 -37 11 -65 12 -27 2 -65 5 -82 6 -83 9
-233 -30 -233 -60 0 -7 -7 -13 -15 -13 -17 0 -55 -39 -55 -56 0 -7 -5 -25 -12
-41 -19 -45 -36 -116 -32 -128 3 -6 -5 -21 -16 -33 -11 -12 -16 -22 -9 -22 8
0 10 -12 6 -36 -4 -24 -1 -47 9 -66 16 -31 16 -31 75 -11 9 2 25 -5 36 -17 19
-19 19 -23 5 -54 -12 -27 -23 -35 -51 -40 -19 -3 -40 -1 -45 4 -17 17 -59 11
-106 -16 -28 -16 -52 -23 -67 -19 -25 6 -30 -4 -12 -22 16 -16 -42 -12 -59 4
-9 9 -137 30 -162 26 -3 0 -18 -3 -34 -7 l-28 -7 22 28 c13 17 17 29 10 31
-14 5 -50 -27 -50 -45 0 -7 -5 -13 -11 -13 -5 0 -8 -4 -4 -9 3 -5 1 -12 -5
-16 -5 -3 -7 -18 -4 -32 5 -19 4 -24 -5 -19 -13 9 -9 -25 14 -119 13 -53 45
-77 45 -34 0 12 10 37 21 56 20 32 22 33 40 17 11 -9 19 -13 19 -9 0 5 13 -4
29 -19 l29 -28 4 28 c3 31 7 32 83 20 l40 -6 -35 10 c-39 12 -55 18 -122 48
-27 12 -48 25 -48 29 0 16 63 6 72 -11 15 -26 48 -35 77 -19 14 7 32 13 39 13
7 0 27 7 45 16 24 13 32 14 35 4 7 -21 42 -51 52 -45 16 10 11 -13 -7 -34 -12
-15 -21 -17 -40 -10 -34 13 -43 11 -43 -6 0 -16 14 -19 73 -15 25 1 45 -4 58
-15 16 -15 21 -16 35 -4 14 11 19 10 34 -8 11 -15 21 -18 31 -12 26 16 39 10
39 -20 0 -28 1 -29 53 -27 28 1 57 5 64 9 15 10 73 16 74 8 1 -3 2 -26 3 -51
2 -25 6 -56 10 -70 10 -36 -16 -116 -36 -112 -13 2 -16 -4 -12 -33 2 -19 1
-36 -3 -36 -5 -1 -21 -3 -37 -5 -33 -4 -37 -6 -40 -31 -2 -10 -11 -20 -22 -22
-10 -2 -28 -14 -39 -27 -11 -13 -26 -24 -33 -24 -7 0 -12 -7 -12 -15 0 -9 -6
-15 -13 -13 -6 2 -27 -8 -45 -20 l-32 -23 -1 23 c-1 18 -2 19 -6 5 -3 -11 -11
-16 -19 -13 -8 3 -14 -1 -14 -8 0 -9 -10 -12 -30 -10 -16 2 -30 -1 -30 -6 0
-15 -21 -12 -42 7 -15 13 -21 14 -27 5 -8 -13 -55 5 -99 39 -13 10 -37 21 -53
24 -17 4 -33 13 -36 21 -3 8 -9 11 -14 8 -5 -3 -9 0 -9 6 0 6 -5 8 -11 4 -8
-4 -9 1 -4 16 4 14 2 25 -5 30 -7 4 -13 27 -13 51 1 24 -3 51 -8 61 -5 9 -10
37 -11 62 0 25 -4 46 -8 46 -4 0 -5 21 -2 46 4 35 2 45 -7 40 -7 -4 -9 -16 -5
-28 5 -18 4 -18 -18 4 -12 12 -23 28 -23 33 -1 6 -6 9 -13 7 -7 -1 -13 10 -14
25 -3 67 -6 80 -17 101 -7 12 -16 20 -22 17 -7 -5 -13 8 -8 18 1 1 -8 21 -20
44 -11 23 -21 49 -21 58 0 9 -7 23 -15 31 -8 9 -15 25 -16 37 0 21 -1 21 -8 2
-7 -19 -6 -100 3 -175 5 -38 29 -117 52 -167 8 -17 32 -70 54 -118 22 -48 47
-115 56 -148 9 -34 21 -69 28 -77 7 -8 19 -31 26 -50 15 -38 70 -119 70 -104
1 5 10 -2 20 -15 11 -13 20 -19 20 -15 0 5 4 4 8 -1 7 -11 53 -33 63 -31 3 0
12 -4 20 -10 8 -7 33 -15 56 -19 22 -3 49 -13 60 -20 10 -8 25 -15 34 -15 9 0
20 -7 23 -16 3 -9 12 -14 20 -11 19 8 37 -13 27 -32 -4 -9 -8 -40 -9 -68 0
-39 3 -53 14 -53 8 0 14 -4 14 -10 0 -5 16 -10 36 -10 27 0 37 5 41 20 6 21
23 28 23 9 0 -6 6 -9 13 -6 6 2 11 9 10 16 -3 10 75 52 110 58 10 2 32 10 48
19 30 15 95 11 84 -6 -2 -4 7 -7 20 -7 14 0 28 3 31 8 3 5 15 9 27 8 12 0 16
-3 10 -6 -22 -8 -14 -25 8 -18 13 4 25 2 29 -5 4 -6 21 -12 39 -12 18 -1 36
-8 41 -17 9 -14 11 -14 20 -1 7 11 10 11 10 2 0 -24 28 -23 67 1 21 13 43 25
48 27 6 1 26 15 46 31 20 16 40 29 44 29 4 0 13 7 19 15 9 12 164 48 174 40 1
-1 -42 -32 -95 -70 -54 -37 -165 -118 -247 -180 -133 -101 -293 -204 -381
-245 -16 -8 -38 -23 -48 -35 -10 -11 -16 -14 -12 -7 8 15 4 15 -32 1 -15 -6
-43 -13 -61 -15 -18 -2 -51 -11 -75 -20 -23 -9 -59 -19 -79 -23 -39 -9 -35
-10 -167 58 -29 15 -40 26 -32 31 10 5 10 17 1 49 -16 62 -15 166 5 264 13 68
15 90 5 102 -6 8 -9 19 -5 25 3 5 2 10 -3 10 -19 0 -62 -42 -103 -103 -24 -34
-61 -88 -84 -120 -59 -87 -72 -107 -97 -159 -13 -27 -27 -48 -31 -48 -5 0 -6
-4 -3 -9 3 -5 -4 -20 -15 -35 -11 -14 -18 -30 -14 -35 3 -5 0 -13 -6 -16 -5
-4 -8 -14 -4 -22 5 -13 3 -14 -10 -3 -9 7 -14 19 -11 27 3 7 -1 13 -11 13 -12
0 -13 3 -4 13 6 8 7 18 3 22 -4 5 1 5 10 2 13 -5 20 2 27 29 5 19 20 47 33 63
13 15 30 38 38 51 8 12 36 50 61 84 25 33 48 68 52 76 4 8 14 25 23 37 16 22
16 23 -12 20 -34 -4 -94 -34 -94 -46 0 -5 -7 -12 -16 -15 -14 -5 -15 -4 -4 9
11 13 10 14 -5 9 -13 -5 -16 -4 -11 4 23 38 -83 -18 -111 -58 -8 -11 -48 -45
-89 -76 -42 -32 -78 -63 -81 -71 -3 -7 -11 -13 -18 -13 -7 0 -15 -5 -17 -12
-3 -7 -12 -9 -23 -5 -17 7 -17 8 1 21 10 8 23 12 28 9 5 -4 6 -1 2 5 -3 6 8
21 26 33 18 13 35 26 38 30 3 3 24 16 48 28 46 23 55 36 20 27 -16 -4 -14 -1
7 10 17 8 38 27 49 41 l19 25 -24 -7 c-13 -4 -40 -21 -60 -36 -20 -16 -41 -29
-45 -29 -5 0 4 11 20 24 l30 23 -55 -7 c-149 -21 -218 -52 -260 -117 -16 -26
-29 -52 -29 -59 0 -6 -13 -26 -30 -44 -16 -18 -30 -37 -30 -44 -1 -6 -8 -22
-16 -36 l-15 -25 7 25 c3 14 7 35 8 48 0 12 5 22 10 22 12 0 56 52 56 66 0 6
11 28 25 48 13 20 22 36 19 36 -29 0 -84 -72 -84 -110 0 -10 -4 -22 -10 -25
-13 -8 -13 6 0 39 7 18 6 26 -2 26 -21 0 -77 -70 -98 -122 -18 -45 -20 -48
-16 -18 l6 35 -20 -24 c-11 -13 -20 -29 -20 -36 0 -7 -7 -26 -15 -41 -8 -16
-15 -44 -15 -61 0 -18 -5 -33 -10 -33 -6 0 -9 17 -8 38 2 29 0 36 -12 33 -8
-2 -22 -4 -30 -4 -51 0 -96 -105 -86 -198 3 -36 2 -59 -4 -59 -6 0 -9 3 -8 8
3 16 -15 82 -23 82 -16 0 -29 -39 -30 -92 0 -48 -2 -50 -11 -25 -5 15 -14 25
-19 21 -5 -3 -5 -13 1 -25 9 -17 7 -19 -17 -19 -24 -1 -26 -2 -10 -11 14 -8
16 -14 6 -25 -6 -8 -9 -17 -6 -20 6 -6 -16 -34 -27 -34 -3 0 -6 10 -6 21 0 18
-3 19 -14 10 -25 -21 -28 -63 -7 -124 20 -58 19 -71 -4 -40 -12 16 -14 14 -22
-17 -6 -22 -6 -37 0 -41 10 -7 4 -16 -35 -60 -22 -24 -22 -26 0 -32 12 -3 10
-5 -7 -6 -22 -1 -23 1 -18 42 3 24 9 52 13 62 3 12 -3 7 -15 -10 -43 -62 -46
-129 -8 -189 20 -31 28 -68 14 -63 -7 2 -13 13 -15 25 -2 12 -8 20 -13 17 -5
-3 -6 2 -2 11 5 13 3 15 -7 9 -8 -5 -18 -2 -26 9 -11 16 -13 16 -19 -3 -3 -12
-3 -25 0 -31 12 -19 -6 -69 -26 -75 -11 -4 -17 -10 -14 -15 3 -4 -2 -13 -10
-20 -13 -11 -75 -96 -75 -103 0 -1 16 -2 36 -2 32 0 35 2 31 24 -15 75 75 114
147 65 11 -7 58 -51 105 -97 60 -58 94 -84 113 -85 45 -3 221 -67 232 -84 8
-13 6 -31 -9 -73 -10 -31 -24 -64 -31 -73 -11 -15 -13 -15 -37 1 -14 9 -46 47
-71 84 -25 37 -59 84 -76 103 l-31 35 35 -65 c19 -36 63 -102 97 -148 39 -53
67 -102 76 -135 8 -29 22 -67 31 -85 14 -26 14 -36 4 -52 -10 -17 -10 -20 5
-20 9 0 14 -3 10 -6 -3 -3 5 -26 18 -50 33 -61 25 -74 -42 -74 -38 0 -52 -3
-47 -11 8 -13 249 -5 314 9 19 5 60 7 90 5 71 -4 220 7 217 15 -2 8 7 12 26
12 8 0 7 -4 -3 -10 -12 -8 -11 -10 6 -10 33 0 35 10 6 36 -20 18 -23 23 -11
24 9 0 20 7 23 16 8 21 8 20 -31 29 -31 6 -33 5 -33 -19 0 -14 5 -26 10 -26 6
0 5 -8 -2 -20 -8 -13 -20 -19 -30 -16 -10 2 -18 -1 -18 -7 0 -6 -6 -3 -12 6
-11 13 -20 15 -50 8 -29 -7 -38 -6 -38 4 0 8 9 10 25 7 15 -2 25 0 25 7 0 6
-3 11 -7 12 -82 6 -83 6 -66 -6 21 -15 10 -45 -15 -45 -11 0 -25 6 -31 14 -7
8 -22 13 -34 10 -11 -2 -24 0 -27 4 -3 4 -15 16 -28 26 -19 17 -22 17 -16 3 3
-10 1 -17 -5 -17 -6 0 -8 -6 -5 -13 3 -8 12 -13 22 -13 9 0 35 -2 57 -4 33 -3
29 -4 -25 -9 -74 -7 -90 0 -72 29 19 31 15 36 -25 36 -21 1 -29 -1 -19 -4 15
-3 16 -6 5 -13 -12 -8 -11 -12 4 -23 18 -14 24 -32 7 -21 -5 3 -10 2 -10 -4 0
-5 6 -12 13 -14 8 -4 7 -6 -3 -6 -22 -1 -36 11 -45 38 -5 17 -4 21 5 16 9 -5
10 -1 5 16 -4 13 -11 28 -15 33 -10 10 12 36 32 37 7 0 1 5 -15 11 -15 5 -25
14 -21 19 3 5 -2 9 -10 9 -17 0 -31 41 -23 62 3 7 6 3 6 -10 1 -22 2 -22 31
-7 29 15 32 39 6 57 -7 5 -4 8 7 8 9 0 17 7 17 16 0 8 -4 13 -9 10 -5 -4 -17
-3 -26 0 -12 5 -15 13 -9 33 4 14 6 34 6 44 0 9 3 17 9 17 5 0 9 -5 9 -12 0
-9 3 -9 13 1 10 10 7 16 -13 31 -14 10 -26 17 -28 15 -2 -2 -5 -21 -5 -42 -2
-31 -6 -39 -24 -41 -13 -2 -23 1 -23 7 0 6 3 10 8 10 4 -1 13 -1 21 0 11 1 11
4 -3 14 -14 10 -17 21 -12 44 8 34 35 51 48 31 5 -9 8 -6 8 10 0 13 -4 21 -9
17 -5 -3 -12 -1 -16 5 -3 5 1 10 10 10 12 0 15 6 10 21 -5 15 -4 19 4 15 6 -4
11 -14 11 -22 0 -8 5 -13 11 -11 6 1 14 -4 16 -10 3 -7 -2 -13 -11 -13 -10 0
-16 -8 -15 -22 0 -13 3 -17 6 -10 2 6 20 12 39 12 24 0 34 5 34 15 0 8 -4 15
-10 15 -5 0 -10 -4 -10 -10 0 -5 -5 -10 -11 -10 -6 0 -9 9 -6 19 3 12 -1 22
-11 26 -8 3 -12 8 -9 12 4 3 -1 12 -11 19 -16 12 -15 13 6 14 12 0 22 5 22 11
0 5 -5 7 -10 4 -20 -12 -10 16 14 40 l24 24 -41 7 c-37 6 -39 8 -23 20 11 7
15 18 10 25 -5 9 3 11 35 6 30 -4 41 -2 38 6 -2 7 -16 12 -30 12 -20 -1 -23 2
-15 12 7 9 22 11 47 7 44 -8 38 -4 46 -37 5 -18 3 -27 -5 -27 -6 0 -8 5 -4 11
4 7 1 10 -7 7 -8 -3 -14 -11 -14 -19 0 -9 15 -15 45 -17 25 -2 49 -7 54 -12 6
-6 -10 -8 -45 -5 -64 6 -86 -4 -70 -31 6 -11 11 -13 11 -6 0 6 7 12 15 12 8 0
15 5 15 12 0 6 6 4 13 -7 10 -12 16 -14 21 -7 4 7 15 12 24 12 13 0 14 -2 4
-9 -9 -5 -4 -8 15 -9 15 -1 40 -3 55 -5 19 -3 25 0 21 9 -3 8 -9 11 -14 8 -5
-3 -19 2 -31 10 -21 15 -21 16 -3 17 13 1 9 4 -10 9 -16 4 -22 8 -12 9 9 0 17
6 17 11 0 7 -7 7 -21 0 -23 -13 -49 -7 -49 11 0 6 6 9 14 6 8 -3 17 1 20 9 3
9 21 14 48 15 40 1 41 2 13 9 l-30 8 28 1 c37 1 35 16 -3 17 -20 1 -30 -4 -30
-13 0 -8 -5 -13 -11 -11 -6 2 -10 7 -9 12 1 4 -6 13 -16 20 -14 11 -22 10 -44
-1 -15 -7 -34 -11 -42 -8 -21 8 -18 33 3 28 14 -4 17 0 13 19 -2 12 -2 17 2
11 3 -7 12 -13 20 -13 8 0 14 -5 14 -11 0 -5 5 -7 10 -4 6 4 18 1 26 -6 8 -6
17 -9 21 -5 3 3 1 6 -5 6 -7 0 -12 7 -12 15 0 8 -3 14 -7 14 -20 -3 -57 3 -45
8 6 2 12 11 12 18 0 10 -7 11 -34 3 -25 -8 -33 -15 -29 -27 3 -9 -4 -6 -15 8
-13 16 -24 21 -33 16 -11 -7 -10 -4 1 10 8 10 10 16 4 12 -7 -4 -17 0 -24 8
-10 12 -9 15 8 15 15 0 20 5 16 15 -4 8 -15 15 -25 15 -11 0 -19 7 -19 16 0 8
-4 12 -10 9 -5 -3 -10 -1 -10 5 0 6 8 10 18 8 9 -2 16 -10 15 -16 -2 -7 4 -12
12 -12 9 0 12 6 9 15 -6 16 -9 16 104 0 63 -9 69 -25 10 -26 l-43 -1 40 -9
c70 -14 76 -12 69 19 -4 19 -3 23 4 13 11 -15 42 -8 42 10 0 6 -7 9 -15 5 -23
-8 -44 4 -39 22 4 12 1 11 -8 -3 -7 -11 -22 -19 -33 -19 -44 4 -49 6 -25 15
18 6 14 7 -17 3 -28 -4 -43 -2 -43 5 0 11 -35 10 -46 -2 -13 -13 -23 -7 -17 9
4 12 16 15 44 12 32 -3 38 -1 36 16 -1 10 5 21 13 23 13 4 13 3 0 -6 -10 -7
-11 -11 -3 -11 7 0 12 -6 10 -12 -1 -7 9 -14 23 -15 18 -2 20 -1 8 5 -29 12
-5 35 30 30 17 -2 29 -1 26 3 -2 4 4 12 13 18 12 7 13 11 5 11 -8 0 -12 6 -10
12 3 7 -1 19 -8 26 -20 19 -7 39 27 40 27 1 29 -1 23 -31 -4 -26 -3 -30 7 -20
7 7 22 13 33 12 20 0 20 -1 -1 -9 -13 -5 -23 -17 -23 -25 0 -9 -4 -13 -10 -10
-16 10 -12 -11 5 -25 9 -7 13 -15 11 -18 -6 -5 19 -32 30 -32 3 0 2 6 -4 13
-12 14 -11 35 2 56 7 11 5 13 -7 8 -10 -3 -17 -2 -17 4 0 16 31 23 40 9 6 -10
9 -9 13 1 4 12 7 11 16 -1 8 -11 11 -12 11 -2 0 9 11 12 33 10 19 -2 31 -8 30
-15 -2 -9 8 -13 30 -12 31 1 31 1 7 10 -21 7 -19 8 15 6 22 -1 43 -6 48 -12 9
-13 4 26 -6 43 -5 7 -3 12 5 12 7 0 14 11 15 25 4 46 6 55 14 55 4 0 10 -9 14
-19 3 -11 14 -22 23 -24 10 -3 6 -5 -10 -6 -25 -1 -28 -5 -28 -36 0 -19 3 -34
8 -34 4 1 14 1 22 0 13 -1 13 -2 0 -12 -11 -8 -12 -12 -2 -16 6 -2 12 -11 12
-19 0 -9 -4 -13 -9 -9 -16 9 -17 -29 -1 -42 13 -11 11 -12 -11 -13 -15 0 -42
-6 -60 -14 -28 -12 -31 -16 -16 -22 12 -4 22 0 31 11 21 29 48 15 52 -28 2
-21 6 -48 10 -59 5 -17 3 -20 -10 -15 -10 4 -15 3 -11 -3 3 -6 12 -10 19 -10
11 0 11 -13 1 -72 -7 -40 -10 -75 -6 -78 10 -7 8 -160 -3 -160 -4 0 -4 -6 2
-12 6 -7 8 -37 6 -67 -6 -75 -6 -212 -1 -303 3 -44 1 -78 -4 -78 -19 0 -8 -26
11 -27 11 -1 20 1 20 5 0 4 14 25 32 46 30 37 31 41 30 128 -2 58 1 87 8 83
11 -7 14 8 4 18 -4 4 -7 22 -8 42 -1 25 3 35 14 35 13 1 13 2 -1 10 -13 7 -14
20 -8 72 4 34 5 67 2 71 -3 5 1 13 8 18 10 6 10 9 2 9 -12 0 -11 9 4 50 13 33
13 63 2 76 -9 11 -8 14 5 14 19 0 21 11 4 28 -9 9 -9 12 1 12 7 0 11 6 7 15
-3 8 2 18 11 23 14 8 14 10 -1 15 -19 7 -22 47 -3 47 7 1 5 6 -5 14 -25 19
-22 26 10 27 l27 0 -25 11 -25 11 30 7 c28 7 28 8 5 9 l-25 2 23 11 c12 6 22
18 22 27 0 13 -2 13 -9 2 -6 -9 -11 -10 -15 -2 -4 6 -4 11 0 11 4 0 -1 8 -10
19 -16 18 -15 18 21 17 23 -1 38 4 39 12 1 6 2 18 3 26 0 8 11 13 26 12 31 -1
34 -16 3 -16 -21 0 -21 0 -2 -18 21 -21 58 -17 50 4 -3 8 -1 14 4 14 6 0 10 7
10 15 0 8 5 15 10 15 6 0 10 5 10 11 0 6 -7 9 -15 5 -9 -3 -15 0 -15 10 0 8 5
12 10 9 6 -3 10 1 10 9 0 8 10 21 22 27 17 9 24 9 33 -5 7 -9 20 -16 30 -16
15 0 14 3 -6 19 -13 10 -31 21 -39 24 -10 3 -7 6 9 6 14 1 21 6 18 14 -2 6 -1
21 4 32 6 16 8 13 9 -15 1 -19 4 -29 7 -22 2 6 12 12 21 12 15 1 15 2 -1 14
-15 12 -16 14 -2 20 8 3 15 13 15 21 0 12 6 15 21 10 13 -4 27 0 40 11 24 21
24 31 2 37 -13 3 -12 5 5 6 19 1 22 5 16 24 l-6 22 19 -22 c22 -24 63 -22 63
4 0 10 6 13 16 9 8 -3 12 -2 9 4 -8 12 -35 13 -35 1 0 -11 -31 -24 -38 -16 -3
3 4 12 16 21 15 11 21 23 18 44 -2 20 1 27 10 23 8 -3 17 2 20 11 9 24 37 21
29 -4 -5 -14 -2 -20 10 -20 10 0 13 5 9 12 -4 6 -3 8 4 4 6 -3 13 -2 17 4 3 5
11 10 17 10 6 0 0 -9 -13 -21 -15 -13 -31 -18 -45 -15 -14 4 -24 0 -28 -10 -9
-22 -8 -24 9 -18 8 4 15 1 15 -5 0 -15 29 -14 44 2 6 6 28 37 48 67 45 67 75
100 91 99 9 0 9 -2 0 -6 -7 -2 -13 -9 -13 -15 0 -6 -7 -16 -15 -22 -8 -6 -16
-24 -19 -40 -3 -15 -13 -34 -23 -41 -10 -7 -18 -17 -19 -22 -1 -15 -27 -63
-35 -63 -4 0 -10 -11 -13 -25 -4 -16 -11 -23 -18 -19 -6 4 -8 3 -5 -3 9 -15
-15 -73 -30 -73 -7 0 -13 -4 -13 -10 0 -5 5 -10 10 -10 6 0 3 -16 -6 -37 -9
-21 -20 -56 -26 -78 -5 -22 -16 -50 -24 -62 -8 -13 -10 -23 -5 -23 12 0 12
-68 0 -76 -4 -2 -4 -17 0 -32 5 -15 6 -42 3 -60 -2 -18 1 -39 8 -47 10 -12 10
-15 0 -15 -9 0 -7 -7 5 -20 10 -11 15 -20 10 -20 -4 0 -3 -6 2 -12 6 -7 9 -22
7 -33 -1 -10 2 -25 8 -32 13 -16 -4 -18 -31 -4 -12 7 -18 6 -18 -2 0 -7 18
-13 41 -15 46 -3 56 -9 37 -21 -11 -7 -9 -11 5 -20 14 -8 15 -10 4 -11 -8 0
-2 -7 14 -15 15 -8 32 -13 36 -10 5 3 10 2 13 -2 2 -5 2 -2 0 5 -1 8 -3 20 -3
27 0 8 -9 17 -21 20 -11 4 -18 12 -16 18 2 7 0 20 -5 31 -7 13 -7 16 1 12 6
-4 11 -2 11 3 0 6 -6 11 -14 11 -17 0 -26 22 -26 60 0 16 -5 32 -10 35 -8 5
-7 11 1 21 8 10 8 18 1 27 -14 17 -13 29 5 50 9 9 13 20 10 24 -4 3 -7 0 -7
-8 0 -11 -2 -11 -10 1 -17 26 -12 70 8 70 13 0 14 2 4 9 -10 6 -11 19 -6 47 9
50 21 74 51 97 22 18 33 45 13 32 -6 -3 -10 1 -10 10 0 9 5 13 11 9 8 -4 9 1
4 16 -5 17 -4 21 5 15 9 -5 11 -4 6 3 -12 20 3 33 25 22 23 -13 25 -7 3 15
-15 15 -15 17 4 22 14 3 19 10 15 21 -4 9 -2 13 4 9 6 -4 15 11 22 32 8 29 18
41 38 46 16 4 29 2 33 -5 6 -9 9 -9 15 0 5 8 1 18 -8 25 -10 7 -17 16 -17 21
0 4 5 3 12 -4 7 -7 19 -12 27 -12 12 0 12 2 -2 13 -11 8 -14 17 -8 25 4 8 10
13 12 12 2 -1 11 1 19 4 8 2 27 7 43 10 15 4 27 13 27 20 0 16 27 29 41 20 5
-3 9 6 9 19 0 19 7 26 31 31 18 3 28 10 24 17 -5 8 -10 8 -18 0 -16 -16 -30
-14 -24 3 4 9 -1 17 -11 20 -9 3 -2 4 16 2 31 -2 33 -1 27 21 -3 14 1 33 10
46 12 18 15 19 15 4 0 -9 -4 -17 -10 -17 -5 0 -10 -7 -10 -15 0 -8 5 -15 11
-15 24 0 85 90 71 105 -4 5 -2 5 5 1 6 -3 19 4 28 16 13 20 17 21 26 8 9 -13
10 -12 5 3 -8 24 3 47 23 47 14 -1 13 -3 -3 -15 -19 -15 -19 -15 5 -16 13 0
18 -3 12 -6 -7 -2 -13 -14 -13 -24 0 -11 -4 -17 -10 -14 -5 3 -10 -2 -11 -12
0 -10 -3 -13 -6 -5 -7 18 -20 15 -26 -8 -3 -13 -1 -18 6 -13 7 3 3 -3 -7 -15
-14 -17 -16 -22 -5 -22 9 -1 6 -8 -9 -20 -13 -11 -21 -24 -17 -30 3 -5 1 -10
-4 -10 -6 0 -11 -4 -11 -10 0 -23 28 -6 87 53 84 84 131 127 138 127 13 0 35
29 35 45 0 12 6 16 20 12 13 -3 20 0 20 9 0 8 6 14 14 14 8 0 18 9 21 20 3 11
14 20 24 20 10 0 30 11 45 25 15 14 32 25 38 25 6 0 8 3 5 7 -5 5 36 33 49 33
8 0 -10 -36 -23 -46 -11 -10 -11 -13 2 -18 8 -3 15 -1 15 4 0 6 9 10 20 10 22
0 27 15 8 24 -7 3 0 4 15 1 19 -4 26 -2 22 5 -3 5 -1 10 4 10 6 0 11 -5 11
-11 0 -8 4 -9 13 0 8 6 16 8 20 5 8 -9 -4 -35 -13 -29 -5 3 -19 1 -32 -5 -21
-9 -21 -10 -2 -7 11 1 20 -2 20 -8 -1 -5 -12 -9 -24 -8 -20 2 -22 0 -11 -13
10 -13 10 -17 -2 -25 -8 -4 -22 -6 -33 -3 -11 4 -16 2 -12 -4 7 -12 -16 -22
-49 -22 -32 0 -41 -17 -13 -24 13 -2 6 -4 -14 -2 -31 2 -38 -2 -38 -16 0 -11
-5 -15 -14 -12 -8 3 -27 -6 -42 -21 -16 -14 -45 -39 -64 -55 l-35 -30 28 0
c15 0 26 3 26 8 -4 23 7 30 61 42 33 7 57 17 54 21 -3 5 -16 6 -30 3 -13 -3
-24 -2 -24 4 0 11 100 23 144 16 17 -2 25 -2 19 2 -17 8 -16 24 1 24 7 0 19 7
26 15 14 17 60 21 60 5 0 -5 7 -10 15 -10 8 0 15 -3 15 -8 0 -4 -21 -5 -46 -3
-31 2 -44 0 -40 -7 3 -6 18 -9 32 -6 l25 5 -17 -33 c-21 -42 -28 -49 -20 -20
4 12 3 22 -3 22 -5 0 -11 -15 -13 -32 -2 -24 -8 -33 -20 -32 -10 1 -18 -5 -18
-13 0 -12 8 -14 33 -9 33 6 33 5 29 -24 -5 -32 -32 -42 -32 -12 0 15 -2 15
-11 2 -8 -11 -12 -12 -16 -2 -6 14 -33 16 -33 2 0 -5 -7 -10 -15 -10 -8 0 -15
-4 -15 -9 0 -5 -10 -12 -22 -14 -13 -2 -4 -5 19 -6 23 0 44 3 47 8 7 10 56 2
56 -10 0 -5 0 -12 -1 -16 0 -5 10 -10 22 -13 12 -3 24 -11 27 -18 2 -7 -2 -10
-12 -6 -12 5 -16 0 -16 -19 0 -22 -6 -26 -40 -32 -22 -4 -38 -12 -37 -18 1 -7
-10 -13 -25 -15 -16 -2 -28 -8 -28 -13 0 -6 -4 -8 -9 -4 -5 3 -12 1 -15 -3 -3
-5 -17 -7 -31 -5 -38 8 -72 -4 -78 -28 -4 -15 -11 -19 -24 -15 -11 4 -27 -1
-39 -12 -10 -9 -26 -17 -34 -17 -24 1 -70 -16 -70 -26 0 -5 -9 -9 -20 -9 -11
0 -20 -4 -20 -10 0 -5 -12 -10 -26 -10 -22 0 -79 -30 -94 -51 -3 -3 -15 -9
-27 -13 -11 -4 -40 -27 -62 -51 -23 -25 -41 -42 -41 -39 0 9 40 84 46 84 3 0
2 -5 -1 -10 -3 -6 -3 -10 1 -10 6 0 74 70 74 77 0 2 -13 -3 -30 -12 -16 -9
-30 -21 -30 -27 0 -6 -2 -9 -5 -6 -10 10 15 60 40 80 14 11 25 26 25 34 0 8 4
13 10 9 5 -3 22 8 38 25 16 16 33 30 37 30 5 0 23 11 41 25 18 14 39 25 46 25
8 0 20 9 28 19 7 11 31 23 52 26 21 4 38 11 38 16 0 5 9 9 20 9 11 0 20 4 20
10 0 5 16 12 35 16 19 3 35 10 35 15 0 10 -42 5 -62 -8 -13 -7 -18 -9 -50 -11
-10 -1 -18 -9 -18 -18 0 -11 -6 -15 -20 -11 -29 7 -178 -71 -237 -124 -69 -62
47 67 206 230 94 96 171 176 171 177 0 11 -22 1 -40 -19 -12 -12 -27 -22 -33
-22 -7 -1 -11 -7 -9 -14 2 -8 -3 -11 -12 -8 -16 7 -296 -259 -296 -281 0 -7
-4 -12 -8 -12 -4 0 -24 -29 -43 -65 -18 -36 -38 -65 -43 -65 -4 0 -6 -7 -2
-15 3 -8 1 -15 -4 -15 -6 0 -10 -9 -10 -20 0 -25 -21 -70 -33 -70 -5 0 -7 6
-4 14 3 7 15 45 27 82 11 38 27 79 35 91 19 28 19 50 0 50 -8 0 -12 -3 -10 -7
5 -8 -26 -72 -41 -85 -11 -10 -29 -63 -26 -77 1 -5 -2 -8 -7 -8 -5 0 -8 -19
-6 -42 3 -55 4 -56 14 -39 5 7 14 10 20 6 8 -5 6 -16 -9 -39 -11 -18 -17 -36
-13 -39 3 -4 0 -13 -7 -22 -10 -12 -10 -15 1 -15 11 0 11 -2 -1 -10 -8 -5 -15
-19 -15 -32 -1 -13 -5 -29 -9 -36 -4 -7 -4 -12 1 -12 4 0 3 -4 -4 -8 -7 -4
-15 -27 -19 -51 -6 -35 -4 -42 6 -36 10 6 11 4 4 -6 -13 -21 -15 -49 -4 -49 6
0 10 5 10 12 0 6 7 18 15 27 31 33 85 107 91 123 3 10 15 20 25 23 24 8 25 22
2 28 -13 3 -10 7 14 17 18 6 31 16 28 21 -3 4 10 15 30 23 19 8 35 19 35 24 0
5 10 13 23 17 l22 7 -25 7 c-24 7 -22 9 18 21 44 14 56 30 21 30 -11 0 -17 -4
-14 -10 3 -5 -3 -10 -14 -10 -11 0 -30 -10 -43 -23 -13 -12 -37 -33 -55 -45
-17 -12 -42 -39 -54 -60 -13 -20 -29 -41 -36 -45 -7 -5 -11 -12 -8 -17 3 -4
-2 -10 -10 -14 -38 -14 6 71 73 140 42 45 89 82 151 119 9 5 27 16 41 25 14 9
53 27 88 40 34 14 62 28 62 33 0 4 5 5 10 2 6 -3 10 -2 10 4 0 5 12 11 28 13
15 2 26 8 25 15 -2 7 9 11 25 11 16 -1 52 7 81 17 29 9 55 14 58 11 3 -3 13 0
21 7 12 9 16 9 19 0 3 -7 13 -13 24 -13 10 0 19 -5 19 -10 0 -13 -48 -32 -61
-24 -5 3 -12 -2 -15 -10 -3 -9 -14 -16 -23 -16 -14 0 -14 2 -1 10 12 8 11 10
-7 10 -31 0 -29 -14 7 -51 l29 -31 6 25 c4 14 4 31 0 36 -3 6 1 11 9 11 11 0
16 -9 16 -30 0 -21 5 -30 16 -30 13 0 14 3 5 14 -9 11 -7 15 9 19 11 3 20 1
20 -4 0 -5 11 -11 24 -15 18 -4 22 -11 18 -26 -3 -14 -1 -19 6 -14 17 10 15
-3 -4 -21 -8 -9 -13 -22 -10 -29 3 -8 1 -14 -4 -14 -6 0 -10 11 -10 25 0 14
-4 25 -9 25 -4 0 -6 12 -3 28 4 22 2 25 -9 15 -7 -7 -22 -13 -33 -13 -17 0
-18 -2 -6 -9 8 -6 17 -8 21 -5 8 5 19 -33 11 -40 -3 -3 -12 -6 -21 -6 -14 0
-14 2 -1 10 11 8 7 10 -17 8 -54 -4 -33 -28 24 -28 34 0 24 -23 -13 -31 l-29
-7 27 -1 c15 0 30 -6 34 -13 4 -7 3 -8 -5 -4 -6 4 -18 0 -27 -8 -14 -15 -14
-16 5 -16 12 0 21 -4 21 -9 0 -4 -12 -6 -26 -3 -18 3 -25 1 -20 -6 3 -6 -3
-13 -14 -17 -11 -3 -20 -13 -20 -21 0 -8 -7 -14 -15 -14 -8 0 -15 5 -15 10 0
6 -8 2 -19 -7 -16 -16 -17 -19 -2 -31 14 -11 12 -12 -9 -8 -14 2 -24 9 -23 15
4 14 -24 15 -29 1 -2 -6 -14 -12 -28 -12 -14 -1 -36 -10 -49 -20 -13 -10 -28
-15 -33 -12 -5 3 -15 -1 -21 -9 -14 -18 -82 -57 -99 -57 -7 0 -23 -11 -37 -23
-15 -13 -42 -30 -61 -37 -19 -8 -46 -24 -59 -37 -13 -13 -30 -23 -38 -23 -8 0
-12 -4 -8 -9 4 -8 -23 -23 -45 -26 -18 -1 -123 -87 -187 -153 -23 -23 -44 -39
-47 -34 -3 5 -17 7 -31 5 -29 -6 -24 -23 7 -23 16 0 19 -5 14 -22 -3 -13 -6
-26 -6 -30 0 -11 -30 -10 -30 1 0 4 -20 7 -43 6 -26 -2 -60 5 -83 16 -21 10
-32 19 -24 19 9 1 5 5 -8 11 -16 6 -30 5 -40 -1 -14 -9 -12 -10 8 -4 22 6 23
5 11 -10 -12 -14 -11 -16 9 -16 22 0 73 -33 64 -42 -7 -8 -54 3 -49 11 2 4 -2
8 -10 8 -8 0 -11 -5 -8 -10 4 -6 -6 -8 -28 -4 -24 5 -30 4 -19 -3 8 -5 24 -10
36 -10 11 0 29 -6 40 -14 17 -14 16 -15 -23 -13 -23 1 -45 6 -49 10 -4 4 -14
7 -23 7 -39 -1 19 -23 112 -44 15 -4 27 -11 27 -17 0 -6 -9 -8 -22 -3 -13 3
-20 3 -16 -1 4 -5 29 -14 55 -22 46 -12 46 -13 11 -10 -25 2 -38 -1 -38 -9 0
-7 -6 -15 -12 -17 -7 -3 -4 -6 7 -6 17 -1 17 -3 5 -11 -13 -8 -12 -10 3 -10 9
0 17 -7 17 -15 0 -16 -29 -10 -42 9 -5 7 -8 7 -8 -2 0 -7 -4 -11 -9 -7 -5 3
-12 -4 -16 -15 -3 -11 -15 -20 -26 -20 -24 0 -26 -37 -1 -42 10 -3 4 -6 -15
-9 -23 -4 -33 -2 -33 8 0 7 -9 13 -19 13 -11 0 -28 3 -38 7 -16 6 -16 5 -3 -8
9 -9 22 -19 30 -22 8 -4 3 -5 -12 -2 -34 6 -47 -12 -17 -24 23 -8 23 -8 -4
-13 -14 -3 -28 -2 -30 1 -2 3 -2 0 0 -8 2 -8 -2 -18 -9 -23 -10 -6 -9 -8 3 -8
9 0 16 -7 16 -15 0 -9 -6 -14 -14 -11 -15 6 -85 -63 -77 -76 3 -4 -6 -13 -20
-20 -14 -6 -26 -18 -26 -27 -1 -13 -2 -13 -11 2 -6 10 -8 25 -5 33 3 8 -1 14
-9 14 -8 0 -21 9 -29 21 -8 12 -19 18 -25 15 -5 -4 -12 -2 -15 3 -9 14 -64 21
-90 12 -13 -5 -36 -30 -52 -55 -15 -24 -31 -43 -35 -40 -4 2 -6 -2 -6 -9 1 -6
-9 -33 -22 -58 -28 -55 -23 -75 21 -93 53 -23 79 -6 138 90 29 46 56 97 60
112 5 18 9 21 9 8 2 -32 -72 -160 -120 -207 -26 -25 -50 -55 -53 -67 -4 -12
-13 -22 -19 -22 -7 0 -17 -10 -22 -23 -7 -15 -20 -23 -45 -25 -19 -2 -38 -9
-42 -15 -5 -8 -8 -5 -9 8 -2 28 -27 -73 -28 -112 l-1 -33 75 0 c63 0 77 3 82
18 14 42 78 167 93 182 13 13 50 70 50 77 0 4 14 24 30 43 16 19 30 39 30 44
0 5 3 6 7 3 3 -4 13 3 21 14 13 18 21 20 58 15 36 -5 44 -3 44 10 0 16 38 71
46 67 2 -2 5 0 6 5 2 9 25 32 32 32 11 0 44 38 38 44 -3 3 1 6 9 6 18 1 52 47
44 61 -4 6 -1 9 7 7 13 -3 78 44 78 56 0 2 -6 6 -12 9 -7 2 -5 3 5 1 10 -1 21
5 24 14 4 9 12 20 19 25 7 4 11 14 8 22 -4 9 0 15 9 15 8 0 21 14 29 30 7 16
16 30 20 30 10 0 30 68 23 79 -3 5 2 16 11 23 9 7 30 28 48 47 17 19 42 44 55
55 13 12 44 41 68 65 42 42 71 62 141 95 18 8 35 22 38 31 3 8 12 15 20 15 8
0 19 9 26 20 7 11 18 20 24 20 15 0 76 31 91 46 7 7 26 15 43 19 16 4 30 11
30 16 0 5 7 9 15 9 8 0 15 4 15 10 0 5 11 12 25 16 14 3 25 10 25 15 0 5 10 9
23 9 13 0 28 5 35 12 7 7 12 8 12 3 0 -6 4 -4 9 3 6 10 20 11 60 4 28 -5 51
-5 51 -1 0 5 -8 9 -17 9 -15 0 -15 2 -4 9 8 5 20 7 28 4 9 -3 11 0 8 10 -4 9
1 16 14 20 12 3 21 1 21 -3 0 -13 64 -9 72 4 5 7 8 5 8 -6 0 -9 -6 -19 -12
-21 -10 -4 -10 -6 0 -6 8 -1 16 8 19 18 3 11 10 22 17 24 9 4 8 -5 -3 -27 -10
-20 -22 -31 -31 -29 -8 2 -30 -10 -48 -26 -28 -25 -139 -84 -262 -140 -30 -13
-59 -32 -78 -49 -7 -6 -18 -12 -24 -12 -17 0 -101 -43 -122 -62 -11 -10 -28
-19 -38 -19 -37 -3 -43 -5 -41 -17 2 -7 -6 -12 -16 -12 -21 0 -37 -16 -24 -23
13 -7 73 5 68 13 -3 5 13 11 35 15 22 4 40 11 40 16 0 5 12 9 26 9 14 0 23 4
20 9 -3 5 10 12 29 15 19 4 35 11 35 15 0 5 12 11 28 14 15 3 38 15 52 27 13
12 32 19 42 17 10 -3 16 -2 13 2 -2 4 10 8 27 8 17 0 36 6 42 14 14 19 56 19
56 1 0 -9 8 -11 23 -8 12 3 16 3 9 0 -6 -3 -10 -10 -6 -15 3 -5 -2 -12 -11
-15 -13 -6 -14 -9 -3 -16 8 -6 1 -7 -22 -4 -31 5 -32 5 -13 -5 23 -12 58 -5
49 10 -3 5 1 12 10 15 9 4 13 2 8 -5 -4 -6 0 -15 7 -20 10 -6 8 -9 -8 -9 -13
0 -23 -4 -23 -10 0 -5 -7 -7 -15 -4 -8 4 -15 1 -15 -5 0 -6 6 -11 13 -11 6 0
0 -10 -15 -23 -24 -19 -27 -28 -24 -64 3 -24 0 -43 -5 -43 -5 0 -9 4 -9 9 0 5
-11 11 -25 13 -31 6 -32 0 -2 -12 17 -7 18 -9 5 -9 -10 -1 -18 -5 -18 -10 0
-21 22 -21 54 -2 18 12 43 21 54 21 12 0 30 10 42 22 22 24 19 38 -5 18 -10
-8 -15 -9 -15 -1 0 16 42 55 63 58 15 3 17 -1 12 -19 -4 -13 -11 -27 -16 -33
-13 -13 -11 -53 3 -61 7 -5 8 -3 4 5 -5 8 4 23 23 40 17 15 31 34 31 42 0 9 3
10 8 3 7 -12 24 -11 55 1 17 7 18 6 6 -14 -8 -12 -19 -19 -25 -17 -6 2 -17 -6
-24 -18 -6 -13 -30 -31 -51 -40 -22 -10 -48 -26 -57 -36 -9 -10 -37 -28 -62
-41 -25 -13 -47 -26 -50 -30 -8 -10 -104 -53 -114 -51 -13 4 -46 -29 -40 -39
3 -5 -6 -9 -20 -9 -14 0 -26 -3 -26 -6 0 -12 30 -35 39 -30 16 10 41 -5 41
-25 0 -10 -4 -19 -10 -19 -5 0 -10 -8 -10 -17 0 -15 2 -15 14 2 7 11 16 29 19
40 4 18 5 18 6 -2 0 -13 6 -23 13 -23 19 0 47 31 41 46 -3 9 2 14 14 14 14 0
19 7 19 23 -1 16 5 23 22 25 21 3 23 1 17 -20 -4 -13 -12 -25 -16 -26 -5 -2
-7 -7 -4 -12 10 -16 -19 -76 -51 -106 -33 -30 -44 -54 -24 -54 6 0 10 5 10 10
0 16 17 11 25 -7 3 -10 1 -19 -4 -21 -6 -2 -11 -15 -11 -28 0 -13 -4 -24 -10
-24 -5 0 -7 -7 -4 -15 4 -10 0 -15 -14 -15 -14 0 -19 -6 -17 -17 2 -10 4 -20
4 -23 1 -3 5 2 10 9 8 13 13 11 28 -6 10 -12 55 -40 100 -63 46 -23 86 -46 89
-52 11 -17 -29 -88 -49 -88 -10 0 -16 -4 -13 -9 3 -5 -12 -16 -33 -24 -36 -15
-50 -35 -56 -82 0 -5 -6 -9 -13 -8 -7 2 -12 -4 -12 -12 0 -8 -6 -15 -14 -15
-7 0 -16 -14 -20 -31 -3 -17 -10 -28 -14 -25 -5 3 -17 -12 -27 -34 -18 -39
-45 -71 -45 -53 0 5 7 18 15 29 8 10 14 24 15 29 0 14 -38 -44 -55 -84 -13
-29 -17 -32 -31 -20 -13 11 -14 9 -9 -13 4 -15 2 -29 -4 -32 -6 -4 -16 -16
-22 -27 -10 -19 -9 -20 10 -9 12 6 21 7 21 1 0 -5 -11 -13 -24 -18 -28 -9
-106 -78 -106 -93 0 -16 825 -14 838 2 16 20 82 188 97 248 35 139 50 183 112
314 37 78 86 188 109 246 24 58 49 105 55 105 7 0 14 6 17 14 3 8 0 11 -7 7
-15 -10 -14 -5 14 93 13 47 29 112 35 144 6 31 15 57 19 57 3 0 7 8 8 18 1 9
13 55 27 101 31 100 33 180 7 259 -12 36 -21 104 -26 182 -11 199 -60 405
-129 535 -9 17 -16 35 -16 42 0 16 -107 156 -167 218 -44 45 -107 103 -278
256 -33 29 -69 62 -80 72 -11 10 -39 32 -62 48 -23 16 -48 41 -55 56 -7 15
-24 33 -37 39 -13 7 -26 16 -30 21 -3 4 -16 17 -28 27 -22 18 -24 18 -42 2
-18 -16 -22 -13 -90 60 -40 42 -71 84 -70 93 3 31 -1 41 -15 41 -17 0 -44 75
-52 145 -6 53 11 174 48 330 l21 90 80 40 c101 50 128 84 172 211 30 90 33
105 26 166 -4 44 -14 78 -28 97 -21 27 -21 31 -7 82 9 30 19 69 24 87 4 18 14
39 20 47 7 8 9 15 5 15 -4 0 -2 6 4 14 7 8 14 24 16 37 3 12 8 25 13 28 4 3 9
20 10 36 1 17 3 42 4 58 1 15 5 27 9 27 4 0 5 10 1 22 -3 13 -1 19 5 15 6 -4
9 13 8 46 -1 29 3 55 9 59 17 11 11 108 -9 153 -10 22 -19 72 -21 112 -2 53
-10 85 -29 122 l-25 51 -805 0 c-742 0 -804 -1 -798 -16z m773 -13 c-13 -25
-30 -36 -30 -20 0 6 8 18 18 25 23 18 24 17 12 -5z m-480 -15 c-7 -7 -14 -6
-21 1 -9 9 -7 12 9 10 14 -1 18 -5 12 -11z m495 -56 c3 -11 3 -24 0 -30 -10
-15 -35 -12 -35 5 0 8 5 15 10 15 6 0 10 4 10 10 0 5 -7 6 -17 3 -11 -4 -14
-3 -9 5 11 19 34 14 41 -8z m25 -44 c0 -2 -6 -9 -14 -15 -11 -9 -16 -9 -22 0
-4 8 -3 9 4 5 7 -4 12 -2 12 3 0 6 5 11 10 11 6 0 10 -2 10 -4z m-540 -81
c-14 -17 -30 -20 -30 -6 0 5 8 12 18 14 9 3 19 5 21 6 2 0 -2 -6 -9 -14z m727
-567 c-3 -8 -6 -5 -6 6 -1 11 2 17 5 13 3 -3 4 -12 1 -19z m-194 -95 c60 -14
77 -22 77 -35 0 -10 6 -17 13 -15 6 1 12 -8 12 -20 0 -12 8 -32 18 -43 10 -12
15 -25 12 -30 -11 -18 -21 -11 -30 21 -9 27 -18 34 -69 50 -53 16 -149 35
-216 42 l-25 2 25 14 c22 13 68 27 95 30 6 1 45 -7 88 -16z m-123 -52 c0 -5
-17 -12 -37 -16 -59 -11 -108 -34 -97 -45 7 -7 27 -2 60 15 53 27 107 34 98
12 -8 -22 21 -48 58 -52 48 -4 84 -23 70 -37 -6 -6 -34 -16 -64 -23 -49 -12
-51 -13 -18 -15 84 -4 125 -12 140 -25 24 -21 35 -19 67 15 30 32 72 40 91 18
22 -28 15 -110 -14 -166 -8 -15 -14 -34 -15 -42 0 -11 -2 -10 -8 3 -6 18 -7
18 -23 0 -9 -10 -19 -34 -21 -54 -2 -19 -11 -46 -20 -59 -9 -14 -17 -29 -17
-35 0 -7 -11 -22 -25 -35 -14 -13 -25 -29 -25 -37 0 -7 -4 -13 -10 -13 -6 0
-5 -10 2 -25 12 -27 24 -32 31 -12 2 6 4 0 3 -15 0 -14 -3 -25 -5 -22 -8 8
-30 -32 -31 -57 0 -29 -17 -49 -42 -49 -10 0 -18 -7 -18 -15 0 -8 -6 -15 -12
-15 -9 0 -8 -4 2 -11 12 -8 10 -9 -9 -4 -14 4 -21 3 -18 -2 4 -6 0 -19 -8 -29
-20 -26 -21 3 -1 31 7 11 15 25 17 30 2 6 6 9 9 8 3 -1 6 25 8 57 3 54 1 59
-26 79 -16 11 -32 18 -35 15 -3 -3 -8 3 -11 13 -7 20 -60 45 -81 37 -7 -3 -20
5 -29 18 -15 20 -19 21 -29 8 -15 -19 -43 -24 -52 -10 -4 6 6 16 24 23 17 6
31 17 31 24 0 7 6 13 13 13 8 0 9 2 1 8 -6 4 -19 32 -28 62 -8 30 -31 75 -51
99 -41 51 -37 39 -40 121 -3 68 8 88 34 67 12 -10 13 -7 7 23 -4 19 -8 44 -9
54 -3 25 48 55 110 66 27 4 49 8 51 9 1 0 2 -3 2 -8z m340 -81 c0 -5 -5 -10
-11 -10 -5 0 -7 5 -4 10 3 6 8 10 11 10 2 0 4 -4 4 -10z m-115 -80 c3 -5 1
-10 -4 -10 -6 0 -11 5 -11 10 0 6 2 10 4 10 3 0 8 -4 11 -10z m-505 -471 c0
-6 -4 -7 -10 -4 -5 3 -10 11 -10 16 0 6 5 7 10 4 6 -3 10 -11 10 -16z m985
-819 c3 -5 2 -10 -4 -10 -5 0 -18 -3 -28 -7 -16 -6 -16 -5 -4 10 15 19 27 22
36 7z m-745 -10 c0 -5 -4 -10 -10 -10 -5 0 -10 5 -10 10 0 6 5 10 10 10 6 0
10 -4 10 -10z m-474 -56 c-8 -21 -15 -34 -15 -28 -1 15 20 76 25 71 2 -2 -2
-21 -10 -43z m-56 -65 c-22 -60 -35 -78 -24 -34 7 31 32 85 38 85 3 0 -4 -23
-14 -51z m24 -83 c-14 -68 -16 -95 -8 -126 6 -22 7 -37 3 -34 -5 3 -9 13 -9
22 0 15 -2 15 -11 2 -8 -11 -9 -3 -5 30 9 68 38 201 43 196 3 -2 -3 -43 -13
-90z m1443 12 c-3 -8 -6 -5 -6 6 -1 11 2 17 5 13 3 -3 4 -12 1 -19z m-484 -53
c-3 -9 -8 -14 -10 -11 -3 3 -2 9 2 15 9 16 15 13 8 -4z m613 -62 c-7 -7 -26 7
-26 19 0 6 6 6 15 -2 9 -7 13 -15 11 -17z m-1626 -8 c0 -8 -4 -15 -10 -15 -5
0 -7 7 -4 15 4 8 8 15 10 15 2 0 4 -7 4 -15z m915 6 c3 -5 2 -12 -3 -15 -5 -3
-9 1 -9 9 0 17 3 19 12 6z m575 -24 c12 3 20 0 20 -6 0 -7 -4 -10 -9 -7 -5 4
-12 0 -14 -6 -4 -10 -8 -9 -16 2 -6 8 -10 20 -10 25 0 6 3 5 5 -1 3 -7 14 -10
24 -7z m-1500 -44 c0 -39 -8 -40 -15 -3 -4 22 1 40 11 40 2 0 4 -16 4 -37z
m765 27 c-3 -5 -11 -10 -16 -10 -6 0 -7 5 -4 10 3 6 11 10 16 10 6 0 7 -4 4
-10z m-1105 -35 c-13 -14 -27 -25 -32 -25 -4 0 5 13 20 29 15 16 29 28 31 25
2 -2 -6 -15 -19 -29z m1210 17 c0 -5 -12 -15 -27 -23 -47 -23 -49 -22 -13 4
40 30 40 30 40 19z m320 4 c0 -2 -7 -9 -15 -16 -13 -11 -14 -10 -9 4 5 14 24
23 24 12z m-1720 -15 c0 -4 -11 -6 -25 -3 -14 2 -25 6 -25 8 0 2 11 4 25 4 14
0 25 -4 25 -9z m615 -29 c-8 -8 -25 10 -19 20 4 6 9 5 15 -3 4 -7 6 -15 4 -17z
m621 -7 c-11 -8 -25 -15 -30 -15 -6 1 0 7 14 15 32 19 40 18 16 0z m54 5 c0
-5 -8 -10 -17 -10 -15 0 -16 2 -3 10 19 12 20 12 20 0z m391 -7 c-16 -28 -51
-69 -51 -60 0 12 44 77 53 77 4 0 3 -8 -2 -17z m621 -4 c-9 -22 -24 -27 -30
-10 -2 6 1 11 8 11 6 0 8 5 5 10 -3 6 1 10 9 10 11 0 13 -5 8 -21z m-962 -5
c0 -2 -9 -4 -21 -4 -11 0 -18 4 -14 10 5 8 35 3 35 -6z m780 6 c0 -5 -2 -10
-4 -10 -3 0 -8 5 -11 10 -3 6 -1 10 4 10 6 0 11 -4 11 -10z m-934 -17 c-4 -4
-40 -19 -79 -34 -40 -14 -80 -29 -89 -33 -13 -6 -15 -3 -12 11 4 12 15 19 37
20 18 1 52 11 77 22 45 20 80 28 66 14z m62 -24 c-7 -5 -17 -9 -23 -9 -5 0 -4
4 4 9 8 5 10 14 5 22 -6 11 -4 11 10 0 13 -11 14 -16 4 -22z m-1118 11 c0 -5
-5 -10 -11 -10 -5 0 -7 5 -4 10 3 6 8 10 11 10 2 0 4 -4 4 -10z m434 -20 c-4
-18 -2 -30 4 -30 14 0 71 -58 64 -64 -3 -3 -12 3 -20 15 -9 13 -20 18 -30 14
-9 -3 -13 -3 -10 1 4 4 -2 18 -12 32 -21 26 -27 58 -10 47 6 -3 10 -1 10 4 0
6 2 11 5 11 2 0 2 -13 -1 -30z m1707 -13 c-10 -9 -11 -8 -5 6 3 10 9 15 12 12
3 -3 0 -11 -7 -18z m-1076 -5 c-3 -3 -11 0 -18 7 -9 10 -8 11 6 5 10 -3 15 -9
12 -12z m-1558 -49 c-3 -10 -5 -2 -5 17 0 19 2 27 5 18 2 -10 2 -26 0 -35z
m1333 37 c0 -5 -2 -10 -4 -10 -3 0 -8 5 -11 10 -3 6 -1 10 4 10 6 0 11 -4 11
-10z m674 1 c4 -5 -3 -7 -14 -4 -11 3 -20 0 -20 -6 0 -6 -5 -11 -11 -11 -8 0
-8 5 1 15 14 17 36 20 44 6z m-1567 -33 c-3 -7 -5 -2 -5 12 0 14 2 19 5 13 2
-7 2 -19 0 -25z m138 12 c3 -5 1 -10 -4 -10 -6 0 -11 5 -11 10 0 6 2 10 4 10
3 0 8 -4 11 -10z m830 0 c-27 -12 -43 -12 -25 0 8 5 22 9 30 9 10 0 8 -3 -5
-9z m85 0 c8 -5 11 -10 5 -10 -5 0 -17 5 -25 10 -8 5 -10 10 -5 10 6 0 17 -5
25 -10z m-875 -10 c3 -5 -1 -10 -10 -10 -9 0 -13 5 -10 10 3 6 8 10 10 10 2 0
7 -4 10 -10z m599 -5 c-4 -8 -8 -15 -10 -15 -2 0 -4 7 -4 15 0 8 4 15 10 15 5
0 7 -7 4 -15z m206 -5 c-8 -5 -22 -9 -30 -9 -10 0 -8 3 5 9 27 12 43 12 25 0z
m-1518 -21 c-21 -19 -49 -18 -36 2 3 5 9 7 13 5 4 -3 13 -1 21 5 25 15 25 10
2 -12z m643 11 c-3 -5 -1 -10 5 -10 6 0 8 -5 5 -10 -4 -6 -10 -8 -15 -5 -4 3
-11 -1 -13 -7 -3 -7 -6 -3 -6 9 -1 18 7 27 27 32 2 1 0 -3 -3 -9z m822 -17
c-3 -3 -11 -2 -17 2 -9 6 -9 10 1 16 14 8 27 -7 16 -18z m193 17 c0 -5 -4 -10
-10 -10 -5 0 -10 5 -10 10 0 6 5 10 10 10 6 0 10 -4 10 -10z m760 0 c0 -5 -7
-7 -15 -4 -8 4 -15 8 -15 10 0 2 7 4 15 4 8 0 15 -4 15 -10z m-1896 -8 c2 -4
-4 -9 -15 -9 -11 -1 -17 2 -14 8 7 11 22 12 29 1z m182 -8 c-9 -8 -16 -23 -16
-31 0 -9 -3 -14 -6 -10 -12 11 6 57 22 57 14 0 14 -2 0 -16z m652 9 c-10 -2
-18 -10 -18 -17 0 -7 -23 -18 -51 -24 -62 -15 -69 -15 -69 -2 0 6 14 10 30 10
17 0 30 5 30 13 0 9 2 9 8 -1 7 -9 14 -8 32 8 13 11 30 19 39 19 13 -1 13 -2
-1 -6z m-183 -29 c11 -8 16 -14 12 -14 -14 0 -77 29 -77 35 0 9 41 -5 65 -21z
m245 12 c0 -9 -7 -12 -20 -9 -11 3 -17 9 -14 14 8 14 34 10 34 -5z m265 -6 c3
-5 1 -10 -4 -10 -6 0 -11 5 -11 10 0 6 2 10 4 10 3 0 8 -4 11 -10z m-1717 -49
c-1 -16 -5 -28 -9 -26 -6 5 0 55 7 55 3 0 3 -13 2 -29z m683 2 c-12 -20 -14
-14 -5 12 4 9 9 14 11 11 3 -2 0 -13 -6 -23z m-166 1 c0 -5 -8 -10 -17 -12
-11 -2 -18 3 -18 11 0 9 8 14 18 13 9 -2 17 -7 17 -12z m395 -4 c0 -5 -2 -10
-4 -10 -3 0 -8 5 -11 10 -3 6 -1 10 4 10 6 0 11 -4 11 -10z m835 -10 c-20 -23
-29 -21 -19 4 3 9 13 16 22 16 13 0 12 -3 -3 -20z m845 10 c0 -5 -5 -10 -11
-10 -5 0 -7 5 -4 10 3 6 8 10 11 10 2 0 4 -4 4 -10z m-1860 -28 c3 -3 -6 -1
-19 3 -21 6 -23 5 -17 -11 5 -14 4 -16 -4 -8 -6 6 -8 18 -4 28 6 16 10 15 44
-12z m545 18 c-3 -5 -12 -10 -18 -10 -7 0 -6 4 3 10 19 12 23 12 15 0z m-645
-22 c0 -4 -9 -8 -20 -8 -11 0 -20 4 -20 9 0 6 9 9 20 8 11 -1 20 -5 20 -9z
m995 -28 c4 -6 -6 -10 -22 -10 -22 0 -25 2 -13 10 19 12 27 12 35 0z m252 -15
c-7 -17 -27 -21 -27 -4 0 5 5 7 10 4 6 -3 10 2 10 11 0 10 3 15 6 11 4 -3 4
-13 1 -22z m-193 -10 c-9 -14 -21 -25 -26 -25 -5 0 -6 -5 -2 -12 5 -7 3 -8 -6
-3 -11 6 -10 10 2 19 8 6 17 19 21 29 3 9 11 17 17 17 6 0 3 -11 -6 -25z
m-368 0 c18 -13 18 -14 -4 -8 -12 3 -25 9 -28 14 -8 14 10 11 32 -6z m-646
-10 c0 -8 4 -15 8 -15 21 0 6 -25 -15 -26 -13 -1 -23 2 -23 7 0 5 5 9 11 9 6
0 9 9 6 20 -3 11 -1 20 4 20 5 0 9 -7 9 -15z m-90 1 c0 -3 -4 -8 -10 -11 -5
-3 -10 -1 -10 4 0 6 5 11 10 11 6 0 10 -2 10 -4z m270 -26 c0 -5 -9 -6 -20 -3
-11 3 -17 9 -15 14 7 10 35 1 35 -11z m410 12 c0 -10 -22 -32 -32 -32 -5 0 -3
9 4 20 13 20 28 27 28 12z m297 2 c-3 -3 -12 -4 -19 -1 -8 3 -5 6 6 6 11 1 17
-2 13 -5z m1067 -47 c6 -2 3 -3 -6 -2 -10 2 -18 -2 -18 -8 0 -8 -3 -7 -9 1 -4
7 -6 25 -3 40 l6 27 10 -27 c5 -15 14 -29 20 -31z m-2199 33 c3 -5 1 -10 -4
-10 -6 0 -11 5 -11 10 0 6 2 10 4 10 3 0 8 -4 11 -10z m125 -11 c0 -3 -9 -9
-20 -12 -19 -5 -27 3 -15 15 8 7 35 6 35 -3z m685 -19 c8 0 16 -4 20 -9 3 -6
-4 -8 -16 -6 -23 5 -39 21 -39 40 1 6 5 2 11 -7 5 -10 16 -18 24 -18z m75 20
c0 -5 -2 -10 -4 -10 -3 0 -8 5 -11 10 -3 6 -1 10 4 10 6 0 11 -4 11 -10z m280
-1 c25 -9 25 -9 -3 -5 -33 4 -43 -7 -22 -24 18 -15 10 -31 -10 -24 -8 4 -12
11 -8 18 4 6 -1 5 -10 -3 -15 -12 -20 -11 -37 4 -16 14 -17 20 -8 26 8 5 16 2
20 -9 6 -15 7 -15 7 0 1 26 27 33 71 17z m260 1 c0 -13 -11 -13 -30 0 -12 8
-11 10 8 10 12 0 22 -4 22 -10z m723 3 c-7 -2 -21 -2 -30 0 -10 3 -4 5 12 5
17 0 24 -2 18 -5z m-2165 -24 c10 -14 9 -17 -6 -21 -15 -4 -18 -1 -14 19 2 13
5 23 6 21 1 -2 7 -10 14 -19z m269 -15 c-3 -3 -12 -4 -19 -1 -8 3 -5 6 6 6 11
1 17 -2 13 -5z m1897 -9 c-7 -17 -34 -21 -34 -4 0 5 4 8 9 4 5 -3 12 -1 16 5
9 15 15 12 9 -5z m-2069 -5 c3 -5 1 -10 -4 -10 -6 0 -11 5 -11 10 0 6 2 10 4
10 3 0 8 -4 11 -10z m360 -12 c-6 -17 -4 -20 9 -15 9 4 16 2 16 -3 0 -6 -9
-10 -20 -10 -16 0 -18 -4 -11 -22 4 -13 6 -29 4 -35 -3 -7 1 -13 9 -14 7 0 2
-5 -11 -10 -23 -9 -23 -10 -6 -29 18 -19 17 -20 -6 -21 l-24 0 23 -9 c30 -13
28 -38 -5 -52 -16 -7 -30 -13 -32 -15 -2 -1 4 -14 13 -28 16 -24 16 -25 -4
-25 -14 0 -20 7 -20 21 0 18 -4 20 -27 15 -21 -5 -24 -4 -13 4 12 8 11 10 -9
10 -19 0 -21 3 -12 14 10 11 8 15 -6 20 -11 3 -8 4 7 3 14 -2 24 -8 23 -15 -2
-6 6 -12 17 -12 12 0 17 5 14 14 -3 7 2 16 10 19 9 4 16 17 15 29 0 13 3 37 6
53 4 17 7 42 8 58 1 15 5 27 10 27 4 0 7 8 7 18 0 17 8 32 17 32 3 0 1 -10 -2
-22z m600 12 c3 -5 1 -10 -4 -10 -6 0 -11 5 -11 10 0 6 2 10 4 10 3 0 8 -4 11
-10z m-228 -32 c-3 -7 -5 -2 -5 12 0 14 2 19 5 13 2 -7 2 -19 0 -25z m283 -9
c0 -8 -7 -7 -47 7 -16 6 -16 7 2 14 20 7 45 -4 45 -21z m-1140 11 c0 -5 -5
-10 -11 -10 -5 0 -7 5 -4 10 3 6 8 10 11 10 2 0 4 -4 4 -10z m120 -11 c0 -5 6
-9 13 -9 8 0 14 -7 14 -15 0 -8 -4 -15 -8 -15 -4 0 -9 7 -13 15 -3 8 -13 15
-21 15 -9 0 -13 -4 -10 -10 3 -6 -1 -7 -9 -4 -19 7 -20 11 -4 28 13 14 38 11
38 -5z m940 11 c0 -5 -5 -10 -11 -10 -5 0 -7 5 -4 10 3 6 8 10 11 10 2 0 4 -4
4 -10z m-800 -10 c0 -5 -5 -10 -11 -10 -5 0 -7 5 -4 10 3 6 8 10 11 10 2 0 4
-4 4 -10z m526 -11 c19 -22 19 -22 -3 -10 -24 12 -39 31 -25 31 5 0 17 -10 28
-21z m-496 -16 c0 -2 -10 -8 -22 -13 l-23 -9 23 0 c20 -1 33 -21 13 -21 -22 0
-41 14 -41 30 0 12 8 18 25 18 14 0 25 -2 25 -5z m107 -25 c-3 -8 -6 -5 -6 6
-1 11 2 17 5 13 3 -3 4 -12 1 -19z m605 -10 c-9 -9 -15 -9 -24 0 -9 9 -8 12 6
12 11 0 15 5 10 13 -6 10 -4 10 7 0 10 -10 10 -16 1 -25z m-908 7 c4 -11 0
-14 -17 -11 -12 3 -24 5 -27 5 -6 2 23 21 31 21 4 0 9 -7 13 -15z m53 -1 c-3
-3 -12 -4 -19 -1 -8 3 -5 6 6 6 11 1 17 -2 13 -5z m78 -4 c-3 -5 -13 -10 -21
-10 -8 0 -14 5 -14 10 0 6 9 10 21 10 11 0 17 -4 14 -10z m1977 -5 c11 -14 10
-25 -3 -25 -11 0 -39 25 -39 35 0 9 34 1 42 -10z m-2345 -1 c-3 -3 -12 -4 -19
-1 -8 3 -5 6 6 6 11 1 17 -2 13 -5z m803 -15 c0 -10 -12 -11 -34 -3 -9 3 -14
10 -11 14 6 10 45 1 45 -11z m-482 -25 c-3 -2 -19 -7 -36 -10 -22 -5 -32 -3
-32 6 0 7 8 10 20 7 11 -3 25 2 32 10 8 11 13 12 16 3 2 -6 2 -13 0 -16z m57
15 c4 -5 1 -9 -5 -9 -7 0 -10 -7 -6 -15 3 -8 2 -15 -2 -15 -12 0 -32 22 -32
35 0 13 38 17 45 4z m560 1 c7 -12 -12 -12 -40 0 -18 8 -17 9 7 9 15 1 30 -3
33 -9z m180 0 c3 -5 1 -10 -4 -10 -6 0 -11 5 -11 10 0 6 2 10 4 10 3 0 8 -4
11 -10z m-1034 -23 c-10 -9 -11 -8 -5 6 3 10 9 15 12 12 3 -3 0 -11 -7 -18z
m139 19 c0 -3 -4 -8 -10 -11 -5 -3 -10 -1 -10 4 0 6 5 11 10 11 6 0 10 -2 10
-4z m574 -15 c4 -5 -3 -7 -14 -4 -23 6 -26 13 -6 13 8 0 17 -4 20 -9z m1519 2
c-7 -2 -21 -2 -30 0 -10 3 -4 5 12 5 17 0 24 -2 18 -5z m-2333 -13 c0 -5 -2
-10 -4 -10 -3 0 -8 5 -11 10 -3 6 -1 10 4 10 6 0 11 -4 11 -10z m204 -32 c-9
-15 -33 12 -27 29 5 14 8 14 19 -2 7 -10 11 -22 8 -27z m756 28 c0 -8 -6 -17
-12 -19 -8 -3 -6 -6 5 -6 9 -1 17 -6 17 -13 0 -6 -3 -8 -7 -5 -8 9 -32 -24
-33 -45 0 -10 -7 -18 -15 -18 -23 0 -18 -17 8 -24 21 -7 21 -7 2 -16 -27 -12
-43 -12 -25 0 8 5 10 10 4 10 -20 0 -24 -13 -9 -30 14 -16 14 -18 -2 -25 -17
-7 -17 -8 2 -16 17 -8 16 -9 -7 -6 -19 3 -28 0 -28 -10 0 -8 5 -11 10 -8 6 3
10 -3 10 -14 0 -16 -6 -21 -25 -21 -21 0 -24 4 -20 29 2 15 8 37 14 47 6 11
17 37 25 59 10 29 18 39 32 38 12 -2 14 0 5 4 -11 4 -11 7 0 14 9 6 2 7 -19 4
-22 -4 -31 -2 -27 5 3 5 13 10 21 10 10 0 13 8 10 24 -3 18 -1 23 10 19 8 -3
14 1 14 11 0 9 8 16 20 16 11 0 20 -6 20 -14z m30 10 c0 -3 -4 -8 -10 -11 -5
-3 -10 -1 -10 4 0 6 5 11 10 11 6 0 10 -2 10 -4z m-916 -14 c3 -5 -1 -9 -9 -9
-8 0 -15 4 -15 9 0 4 4 8 9 8 6 0 12 -4 15 -8z m706 -2 c0 -5 7 -10 15 -10 8
0 15 -4 15 -10 0 -5 -7 -7 -15 -5 -8 3 -22 7 -31 10 -8 3 -12 9 -9 15 8 13 25
13 25 0z m-233 -22 c-3 -8 -6 -5 -6 6 -1 11 2 17 5 13 3 -3 4 -12 1 -19z
m-452 2 c-3 -5 -12 -10 -18 -10 -7 0 -6 4 3 10 19 12 23 12 15 0z m81 -18 c1
-21 -31 -38 -42 -21 -3 5 1 9 9 9 11 0 13 7 10 21 -4 16 -2 20 8 17 8 -3 14
-14 15 -26z m669 18 c3 -5 1 -10 -4 -10 -6 0 -11 5 -11 10 0 6 2 10 4 10 3 0
8 -4 11 -10z m28 -5 c-3 -9 -8 -14 -10 -11 -3 3 -2 9 2 15 9 16 15 13 8 -4z
m167 11 c0 -3 -4 -8 -10 -11 -5 -3 -10 -1 -10 4 0 6 5 11 10 11 6 0 10 -2 10
-4z m-727 -13 c-13 -2 -23 -9 -23 -14 0 -15 -43 -28 -57 -17 -7 5 -17 7 -23 3
-5 -3 -10 -1 -10 6 0 6 8 9 20 6 11 -3 20 -1 20 5 0 6 7 8 15 5 8 -4 17 -2 20
3 4 6 18 9 33 9 24 -2 24 -2 5 -6z m82 -3 c3 -5 1 -10 -4 -10 -6 0 -11 5 -11
10 0 6 2 10 4 10 3 0 8 -4 11 -10z m2040 -10 c-3 -5 -12 -10 -20 -10 -7 0 -16
-6 -18 -12 -4 -8 -6 -7 -6 4 -1 16 12 26 37 27 7 1 10 -3 7 -9z m-1645 -15 c0
-19 -11 -19 -36 0 -18 14 -18 14 9 15 17 0 27 -5 27 -15z m310 5 c0 -5 -5 -10
-11 -10 -5 0 -7 5 -4 10 3 6 8 10 11 10 2 0 4 -4 4 -10z m-757 -14 c16 -13 15
-14 -16 -13 -27 1 -32 4 -23 14 14 16 17 15 39 -1z m47 10 c0 -3 -4 -8 -10
-11 -5 -3 -10 -1 -10 4 0 6 5 11 10 11 6 0 10 -2 10 -4z m440 -6 c0 -5 -5 -10
-11 -10 -5 0 -7 5 -4 10 3 6 8 10 11 10 2 0 4 -4 4 -10z m-744 -37 c-2 -2 -11
0 -20 3 -14 5 -15 9 -5 15 12 7 34 -10 25 -18z m720 -30 c-3 -3 -12 0 -20 6
-12 10 -15 7 -18 -16 -2 -15 -7 -27 -13 -25 -10 3 -10 16 -1 57 3 11 5 24 5
30 1 5 13 -3 27 -18 14 -16 23 -31 20 -34z m-661 37 c3 -5 15 -10 25 -10 10 0
22 -5 26 -11 5 -8 -1 -10 -19 -5 -14 3 -27 3 -30 -2 -2 -4 -2 -1 0 7 2 10 -4
11 -24 6 -23 -5 -25 -4 -14 9 15 18 27 20 36 6z m831 -35 c-7 -27 -26 -35 -26
-10 0 8 5 15 10 15 6 0 10 8 10 17 0 9 3 14 6 10 4 -3 4 -18 0 -32z m-716 15
c0 -5 7 -10 15 -10 8 0 15 -4 15 -9 0 -14 -38 -1 -44 15 -3 8 -1 14 4 14 6 0
10 -4 10 -10z m137 4 c-3 -3 -12 -4 -19 -1 -8 3 -5 6 6 6 11 1 17 -2 13 -5z
m443 -14 c0 -5 -4 -10 -10 -10 -5 0 -10 5 -10 10 0 6 5 10 10 10 6 0 10 -4 10
-10z m-760 -30 c0 -3 8 -6 18 -7 41 -5 82 -16 82 -23 0 -5 -14 -11 -30 -15
-17 -4 -28 -11 -24 -16 3 -5 -2 -9 -10 -9 -18 0 -21 16 -6 25 6 4 8 10 5 15
-4 6 -14 4 -25 -2 -21 -14 -25 -12 -34 18 -4 15 -2 21 9 21 8 0 15 -3 15 -7z
m72 -2 c-9 -9 -15 -9 -24 0 -9 9 -7 12 12 12 19 0 21 -3 12 -12z m133 -8 c3
-5 -3 -10 -14 -10 -12 0 -21 5 -21 10 0 6 6 10 14 10 8 0 18 -4 21 -10z m-305
-14 c0 -3 -4 -8 -10 -11 -5 -3 -10 -1 -10 4 0 6 5 11 10 11 6 0 10 -2 10 -4z
m510 -6 c0 -5 7 -7 15 -4 8 4 15 1 15 -6 0 -6 -4 -8 -10 -5 -5 3 -10 1 -10 -4
0 -6 5 -11 10 -11 6 0 10 -4 10 -10 0 -5 -7 -10 -15 -10 -8 0 -15 9 -15 19 0
11 -5 23 -11 27 -8 4 -9 -1 -4 -16 6 -19 4 -22 -9 -17 -9 4 -16 3 -16 -2 0 -5
-15 -7 -32 -5 -18 1 -40 3 -48 4 -13 0 -13 1 0 10 9 6 17 5 22 -3 6 -9 8 -9 8
1 0 6 9 12 20 12 11 0 20 6 20 13 0 7 11 14 25 15 14 1 25 -3 25 -8z m335 0
c3 -6 -1 -7 -9 -4 -18 7 -21 14 -7 14 6 0 13 -4 16 -10z m-281 -15 c-4 -8 -8
-15 -10 -15 -2 0 -4 7 -4 15 0 8 4 15 10 15 5 0 7 -7 4 -15z m-557 -22 c-3 -3
-11 -2 -17 2 -9 6 -9 10 1 16 14 8 27 -7 16 -18z m2368 4 c1 -19 -25 -41 -36
-30 -5 5 -2 17 8 30 18 22 28 21 28 0z m-2040 3 c3 -5 1 -10 -4 -10 -6 0 -11
5 -11 10 0 6 2 10 4 10 3 0 8 -4 11 -10z m-160 -10 c-3 -5 -1 -10 6 -10 28 0
-3 -13 -36 -15 -44 -2 -45 8 -2 22 17 5 33 11 35 12 2 0 0 -3 -3 -9z m460 0
c3 -5 -1 -10 -10 -10 -9 0 -13 5 -10 10 3 6 8 10 10 10 2 0 7 -4 10 -10z m160
0 c4 -6 10 -8 14 -6 4 3 8 -1 8 -9 0 -8 -4 -15 -9 -15 -10 0 -38 25 -38 34 0
10 18 7 25 -4z m-697 -22 c-4 -31 -43 -36 -58 -9 -8 17 -8 21 4 21 8 0 16 -5
18 -12 3 -7 10 -8 17 -4 11 7 11 10 0 17 -11 7 -10 9 4 9 13 0 18 -6 15 -22z
m136 -1 c21 -21 15 -47 -11 -47 -14 0 -23 6 -23 16 0 10 6 14 15 10 18 -7 20
5 3 22 -7 7 -9 12 -4 12 4 0 13 -6 20 -13z m276 -3 c0 -2 -7 -4 -15 -4 -8 0
-15 4 -15 10 0 5 7 7 15 4 8 -4 15 -8 15 -10z m1825 -14 c3 -5 1 -10 -4 -10
-6 0 -11 5 -11 10 0 6 2 10 4 10 3 0 8 -4 11 -10z m-2230 -30 c-4 -6 -12 -10
-18 -9 -7 1 -20 -1 -29 -5 -10 -5 -23 -6 -30 -3 -8 3 -3 9 12 15 33 14 73 15
65 2z m-8 -26 c-3 -3 -12 -4 -19 -1 -8 3 -5 6 6 6 11 1 17 -2 13 -5z m-58 -22
c-7 -3 -17 -10 -21 -16 -5 -7 -8 -5 -8 5 0 22 9 29 28 21 13 -5 14 -6 1 -10z
m-24 -42 c-4 -6 -11 -8 -16 -5 -10 7 -13 -38 -3 -48 3 -3 17 -2 30 3 21 8 24
7 24 -13 0 -18 -2 -19 -10 -7 -6 9 -10 10 -10 3 0 -6 5 -15 10 -18 6 -4 8 -11
5 -16 -3 -5 2 -6 11 -2 11 4 15 3 11 -5 -4 -6 1 -13 10 -15 13 -3 12 -5 -6 -6
-16 -1 -21 -5 -17 -16 3 -9 0 -15 -10 -15 -8 0 -12 5 -9 10 3 6 -3 10 -14 10
-12 0 -21 5 -21 11 0 5 4 8 9 5 13 -9 19 15 10 44 -4 14 -7 20 -8 13 -1 -17
-29 -5 -34 15 -3 10 -5 -1 -6 -22 0 -22 -9 -48 -18 -59 -17 -19 -17 -20 3 -15
17 4 21 2 16 -14 -3 -14 -7 -16 -13 -7 -6 10 -11 10 -23 -1 -14 -11 -16 -10
-10 6 4 10 11 24 15 29 4 6 11 35 15 65 7 53 24 79 52 80 7 0 10 -5 7 -10z
m-401 -95 c-7 -17 -38 -19 -69 -4 -15 7 -11 8 17 4 20 -3 39 -1 43 5 9 15 15
12 9 -5z m2797 -22 c-9 -16 -10 -15 -9 9 2 16 6 24 11 19 5 -5 5 -17 -2 -28z
m-111 17 c0 -12 -8 -12 -35 0 -18 8 -17 9 8 9 15 1 27 -3 27 -9z m-2625 -30
c3 -5 1 -10 -4 -10 -6 0 -11 5 -11 10 0 6 2 10 4 10 3 0 8 -4 11 -10z m419
-26 c4 -10 2 -13 -6 -8 -8 5 -9 2 -5 -9 5 -13 1 -17 -18 -17 -14 0 -25 -5 -25
-11 0 -6 7 -9 15 -5 8 3 15 1 15 -4 0 -6 -9 -10 -20 -10 -11 0 -20 7 -20 15 0
24 -20 17 -21 -7 -1 -19 -2 -19 -6 -5 -3 10 -2 30 2 45 5 19 9 22 15 12 13
-21 49 -20 56 2 7 22 10 23 18 2z m-411 -14 c-3 -11 -9 -20 -14 -20 -14 0 -11
28 4 33 6 3 13 6 14 6 0 1 -1 -8 -4 -19z m2707 1 c0 -6 -4 -13 -10 -16 -5 -3
-10 1 -10 9 0 9 5 16 10 16 6 0 10 -4 10 -9z m-2165 -21 c3 -5 2 -10 -4 -10
-5 0 -13 5 -16 10 -3 6 -2 10 4 10 5 0 13 -4 16 -10z m-249 -37 c-11 -11 -19
6 -11 24 8 17 8 17 12 0 3 -10 2 -21 -1 -24z m-15 -73 c-5 -25 -9 -35 -10 -24
-1 28 11 92 16 79 1 -6 -1 -30 -6 -55z m69 50 c0 -5 -5 -10 -11 -10 -5 0 -7 5
-4 10 3 6 8 10 11 10 2 0 4 -4 4 -10z m2225 -60 c3 -6 -1 -7 -9 -4 -18 7 -21
14 -7 14 6 0 13 -4 16 -10z m-2219 -30 c16 3 15 -17 -1 -23 -9 -4 -15 -1 -15
8 0 8 -8 15 -17 15 -15 0 -16 2 -3 10 9 6 17 5 21 -1 3 -6 10 -10 15 -9z
m1284 -116 c0 -8 -4 -12 -10 -9 -5 3 -10 10 -10 16 0 5 5 9 10 9 6 0 10 -7 10
-16z m44 -9 c3 -8 1 -15 -4 -15 -6 0 -10 7 -10 15 0 8 2 15 4 15 2 0 6 -7 10
-15z m-48 -42 c-7 -7 -26 7 -26 19 0 6 6 6 15 -2 9 -7 13 -15 11 -17z m-6 -23
c0 -5 -4 -10 -10 -10 -5 0 -10 5 -10 10 0 6 5 10 10 10 6 0 10 -4 10 -10z
m800 -60 c0 -5 -7 -10 -16 -10 -8 0 -12 5 -9 10 3 6 10 10 16 10 5 0 9 -4 9
-10z m-2090 -76 c0 -8 7 -14 16 -14 8 0 12 -5 9 -10 -5 -8 -11 -8 -20 0 -15
12 -28 53 -14 44 5 -3 9 -12 9 -20z m2320 16 c18 -12 2 -12 -25 0 -13 6 -15 9
-5 9 8 0 22 -4 30 -9z m-1090 -10 c0 -5 -5 -10 -11 -10 -5 0 -7 5 -4 10 3 6 8
10 11 10 2 0 4 -4 4 -10z m-1291 -62 c1 -16 -3 -28 -8 -28 -15 0 -24 39 -16
68 7 25 8 26 15 7 5 -11 9 -32 9 -47z m2221 13 c0 -5 -7 -11 -15 -15 -15 -5
-20 5 -8 17 9 10 23 9 23 -2z m-2158 -79 c3 -10 0 -19 -6 -19 -7 0 -12 9 -12
19 0 23 12 23 18 0z m773 -92 c-3 -5 -11 -10 -16 -10 -6 0 -7 5 -4 10 3 6 11
10 16 10 6 0 7 -4 4 -10z m1424 -36 c2 -2 2 -7 -2 -10 -3 -3 -16 2 -29 11
l-23 17 25 -7 c14 -4 27 -9 29 -11z m101 -40 c0 -2 -12 -4 -26 -4 -14 0 -23 4
-20 9 6 8 46 4 46 -5z m119 -50 c12 -11 -8 -10 -39 2 l-35 14 35 -6 c19 -4 37
-8 39 -10z m-289 -264 c0 -5 -5 -10 -11 -10 -5 0 -7 5 -4 10 3 6 8 10 11 10 2
0 4 -4 4 -10z"/>
<path d="M2450 1979 c0 -5 5 -7 10 -4 6 3 10 8 10 11 0 2 -4 4 -10 4 -5 0 -10
-5 -10 -11z"/>
<path d="M2330 4401 c-48 -4 -68 -9 -57 -13 22 -9 123 -10 154 -2 26 7 21 25
-5 22 -9 -1 -51 -4 -92 -7z"/>
<path d="M5070 4190 c0 -5 5 -10 10 -10 6 0 10 5 10 10 0 6 -4 10 -10 10 -5 0
-10 -4 -10 -10z"/>
<path d="M2230 4093 c-8 -3 -30 -19 -49 -36 -28 -24 -30 -28 -12 -22 35 11 91
46 91 56 0 10 -7 10 -30 2z"/>
<path d="M2370 4035 c0 -11 44 -44 52 -39 12 8 -21 44 -39 44 -7 0 -13 -2 -13
-5z"/>
<path d="M5090 3890 c0 -5 5 -10 10 -10 6 0 10 5 10 10 0 6 -4 10 -10 10 -5 0
-10 -4 -10 -10z"/>
<path d="M2845 3674 c-12 -9 -36 -14 -61 -13 -32 2 -48 -3 -73 -23 l-31 -27
52 5 c52 5 52 5 33 -16 -10 -11 -24 -20 -32 -20 -7 0 -13 -6 -13 -14 0 -8 -9
-18 -20 -21 -22 -7 -26 -20 -10 -30 6 -3 10 -1 10 6 0 6 8 9 20 6 11 -3 27 1
34 9 8 8 17 14 21 14 9 0 54 54 55 65 0 6 9 18 20 28 11 9 20 24 20 32 0 18 0
18 -25 -1z"/>
<path d="M2638 3532 c-16 -2 -28 -9 -28 -17 0 -8 7 -11 20 -8 11 3 20 1 20 -5
0 -5 9 -12 20 -15 16 -4 18 -2 11 11 -4 10 -10 22 -12 27 -2 6 -16 9 -31 7z"/>
<path d="M2470 3518 c0 -4 7 -8 15 -8 9 0 18 -6 21 -13 6 -16 28 -20 83 -15
17 2 17 4 4 25 -13 19 -23 22 -69 21 -30 -1 -54 -6 -54 -10z m107 -20 c-3 -8
-6 -5 -6 6 -1 11 2 17 5 13 3 -3 4 -12 1 -19z"/>
<path d="M5115 3460 c-3 -5 -1 -10 4 -10 6 0 11 5 11 10 0 6 -2 10 -4 10 -3 0
-8 -4 -11 -10z"/>
<path d="M2350 3319 c0 -5 5 -7 10 -4 6 3 10 8 10 11 0 2 -4 4 -10 4 -5 0 -10
-5 -10 -11z"/>
<path d="M5303 3148 c2 -7 10 -13 17 -13 7 0 15 6 18 13 2 7 -5 12 -18 12 -13
0 -20 -5 -17 -12z"/>
<path d="M4602 3138 c3 -7 13 -15 23 -17 17 -3 17 -2 3 13 -20 19 -31 21 -26
4z"/>
<path d="M4436 3083 c-13 -13 -5 -21 19 -19 14 0 25 2 25 3 0 7 -38 21 -44 16z"/>
<path d="M2295 2940 c-3 -5 -2 -10 4 -10 5 0 13 5 16 10 3 6 2 10 -4 10 -5 0
-13 -4 -16 -10z"/>
<path d="M5265 2840 c4 -6 11 -8 16 -5 14 9 11 15 -7 15 -8 0 -12 -5 -9 -10z"/>
<path d="M5220 2781 c0 -5 7 -12 16 -15 24 -9 28 -7 14 9 -14 17 -30 20 -30 6z"/>
<path d="M5330 2635 c0 -8 2 -15 4 -15 2 0 6 7 10 15 3 8 1 15 -4 15 -6 0 -10
-7 -10 -15z"/>
<path d="M5070 2580 c0 -5 5 -10 10 -10 6 0 10 5 10 10 0 6 -4 10 -10 10 -5 0
-10 -4 -10 -10z"/>
<path d="M4970 2570 c0 -5 5 -10 11 -10 5 0 7 5 4 10 -3 6 -8 10 -11 10 -2 0
-4 -4 -4 -10z"/>
<path d="M3730 2555 c7 -9 15 -13 17 -11 7 7 -7 26 -19 26 -6 0 -6 -6 2 -15z"/>
<path d="M3690 2544 c0 -8 5 -12 10 -9 6 3 10 10 10 16 0 5 -4 9 -10 9 -5 0
-10 -7 -10 -16z"/>
<path d="M3658 2516 c-10 -7 -18 -16 -18 -19 0 -12 28 4 34 19 6 17 6 17 -16
0z"/>
<path d="M4956 2495 c-3 -9 0 -15 9 -15 8 0 15 7 15 15 0 8 -4 15 -9 15 -5 0
-11 -7 -15 -15z"/>
<path d="M5080 2449 c0 -5 5 -7 10 -4 6 3 10 8 10 11 0 2 -4 4 -10 4 -5 0 -10
-5 -10 -11z"/>
<path d="M5150 2428 c0 -9 5 -20 10 -23 6 -3 10 -16 11 -28 0 -21 1 -21 10 2
8 20 6 29 -11 45 -17 18 -20 18 -20 4z"/>
<path d="M3690 2409 c0 -5 5 -7 10 -4 6 3 10 8 10 11 0 2 -4 4 -10 4 -5 0 -10
-5 -10 -11z"/>
<path d="M5230 2390 c0 -5 5 -10 10 -10 6 0 10 5 10 10 0 6 -4 10 -10 10 -5 0
-10 -4 -10 -10z"/>
<path d="M3766 2382 c-3 -5 1 -9 9 -9 8 0 15 4 15 9 0 4 -4 8 -9 8 -6 0 -12
-4 -15 -8z"/>
<path d="M5265 2380 c-3 -5 -1 -10 4 -10 6 0 11 5 11 10 0 6 -2 10 -4 10 -3 0
-8 -4 -11 -10z"/>
<path d="M5205 2361 c4 -12 -1 -41 -11 -66 -13 -36 -21 -44 -35 -40 -26 8 -25
-16 1 -38 20 -17 21 -16 27 14 3 17 12 33 19 36 7 2 10 11 7 19 -3 8 5 18 21
25 31 14 32 21 9 41 -35 30 -46 32 -38 9z"/>
<path d="M5290 2360 c0 -5 5 -10 11 -10 5 0 7 5 4 10 -3 6 -8 10 -11 10 -2 0
-4 -4 -4 -10z"/>
<path d="M5140 2341 c0 -11 26 -22 34 -14 3 3 3 10 0 14 -7 12 -34 11 -34 0z"/>
<path d="M5097 2320 c-6 -24 8 -36 17 -14 8 22 7 34 -3 34 -5 0 -11 -9 -14
-20z"/>
<path d="M3475 2310 c-3 -5 -1 -10 4 -10 6 0 11 5 11 10 0 6 -2 10 -4 10 -3 0
-8 -4 -11 -10z"/>
<path d="M5310 2303 c0 -14 -6 -23 -16 -23 -13 0 -14 -6 -8 -32 5 -18 8 -46 7
-61 0 -24 2 -26 14 -14 11 10 11 20 3 41 -7 18 -7 33 0 44 8 14 9 13 10 -10 0
-21 4 -25 20 -21 12 3 20 2 18 -3 -2 -5 0 -10 5 -11 8 -3 7 4 -1 26 -3 7 1 17
9 21 7 5 10 13 5 17 -5 4 -11 2 -13 -4 -7 -19 -33 -15 -33 5 0 9 -5 24 -10 32
-8 12 -10 11 -10 -7z"/>
<path d="M3254 2248 c8 -39 13 -45 28 -30 9 9 9 12 -1 12 -8 0 -11 7 -8 19 3
12 -1 22 -10 26 -13 4 -14 -1 -9 -27z"/>
<path d="M5115 2270 c-3 -5 -1 -10 4 -10 6 0 11 5 11 10 0 6 -2 10 -4 10 -3 0
-8 -4 -11 -10z"/>
<path d="M5200 2237 c0 -2 7 -19 16 -36 13 -25 14 -38 6 -56 -13 -27 6 -53 25
-34 18 18 43 -2 49 -43 4 -24 10 -36 16 -30 12 12 -16 82 -32 82 -6 0 -8 5 -5
10 4 6 2 17 -5 25 -8 10 -8 19 -1 34 15 28 14 31 -13 31 -14 0 -28 5 -31 10
-6 9 -25 14 -25 7z"/>
<path d="M3203 2195 c0 -9 4 -14 9 -13 5 2 10 8 10 13 0 5 -5 11 -10 13 -5 1
-9 -4 -9 -13z"/>
<path d="M5122 2199 c2 -6 8 -10 13 -10 5 0 11 4 13 10 2 6 -4 11 -13 11 -9 0
-15 -5 -13 -11z"/>
<path d="M3740 2180 c0 -5 5 -10 11 -10 5 0 7 5 4 10 -3 6 -8 10 -11 10 -2 0
-4 -4 -4 -10z"/>
<path d="M3810 2180 c0 -5 5 -10 10 -10 6 0 10 5 10 10 0 6 -4 10 -10 10 -5 0
-10 -4 -10 -10z"/>
<path d="M5345 2180 c-3 -5 -1 -10 4 -10 6 0 11 5 11 10 0 6 -2 10 -4 10 -3 0
-8 -4 -11 -10z"/>
<path d="M5172 2138 c-13 -35 0 -37 22 -3 19 30 20 32 3 32 -8 0 -19 -13 -25
-29z"/>
<path d="M5387 2155 c-4 -8 -2 -17 3 -20 6 -4 10 3 10 14 0 25 -6 27 -13 6z"/>
<path d="M5350 2133 c-1 -27 -1 -27 -15 -9 -16 22 -29 17 -20 -7 4 -8 17 -17
31 -20 22 -4 24 -1 24 29 0 19 -4 34 -10 34 -5 0 -10 -12 -10 -27z"/>
<path d="M5147 2093 c-4 -3 -6 -20 -6 -37 1 -17 3 -23 6 -14 4 14 8 16 24 8
15 -8 19 -7 19 5 0 9 -9 15 -21 15 -15 0 -19 5 -15 15 6 16 3 19 -7 8z"/>
<path d="M5341 2074 c0 -11 3 -14 6 -6 3 7 2 16 -1 19 -3 4 -6 -2 -5 -13z"/>
<path d="M5270 2039 c0 -5 5 -7 10 -4 6 3 10 8 10 11 0 2 -4 4 -10 4 -5 0 -10
-5 -10 -11z"/>
<path d="M2958 2033 c-24 -6 -23 -28 1 -30 14 -1 19 4 18 18 -1 10 -1 18 -2
18 0 -1 -8 -3 -17 -6z"/>
<path d="M3269 2001 c-35 -28 -20 -32 20 -4 19 13 27 23 19 23 -9 0 -26 -9
-39 -19z"/>
<path d="M3620 2005 c0 -9 9 -15 25 -15 14 0 25 4 25 9 0 5 -10 7 -22 3 -14
-3 -19 -2 -14 6 4 7 2 12 -3 12 -6 0 -11 -7 -11 -15z"/>
<path d="M5350 1994 c0 -8 5 -12 10 -9 6 4 8 11 5 16 -9 14 -15 11 -15 -7z"/>
<path d="M3698 1993 c7 -3 16 -2 19 1 4 3 -2 6 -13 5 -11 0 -14 -3 -6 -6z"/>
<path d="M2670 1973 c-13 -15 -12 -16 4 -10 10 4 20 7 22 7 2 0 4 5 4 10 0 15
-13 12 -30 -7z"/>
<path d="M2965 1980 c-3 -5 -1 -10 4 -10 6 0 11 5 11 10 0 6 -2 10 -4 10 -3 0
-8 -4 -11 -10z"/>
<path d="M5162 1978 c3 -7 13 -15 24 -17 16 -3 17 -1 5 13 -16 19 -34 21 -29
4z"/>
<path d="M5320 1942 c0 -16 8 -32 20 -40 17 -11 20 -10 20 7 0 11 -7 26 -15
34 -11 12 -12 17 -2 20 7 3 5 6 -5 6 -13 1 -18 -7 -18 -27z"/>
<path d="M3477 1943 c-16 -8 -26 -17 -23 -20 7 -8 66 17 66 28 0 12 -9 10 -43
-8z"/>
<path d="M5240 1951 c0 -6 6 -11 14 -11 8 0 17 -6 20 -12 3 -7 5 -4 3 7 -2 20
-37 35 -37 16z"/>
<path d="M2670 1920 c0 -5 5 -10 10 -10 6 0 10 5 10 10 0 6 -4 10 -10 10 -5 0
-10 -4 -10 -10z"/>
<path d="M3400 1920 c0 -5 10 -10 23 -10 18 0 19 2 7 10 -19 13 -30 13 -30 0z"/>
<path d="M3700 1920 c0 -5 5 -10 11 -10 5 0 7 5 4 10 -3 6 -8 10 -11 10 -2 0
-4 -4 -4 -10z"/>
<path d="M3355 1900 c3 -5 15 -10 26 -10 11 0 17 5 14 10 -3 6 -15 10 -26 10
-11 0 -17 -4 -14 -10z"/>
<path d="M5260 1906 c0 -2 7 -7 16 -10 8 -3 12 -2 9 4 -6 10 -25 14 -25 6z"/>
<path d="M2635 1870 c-3 -6 1 -7 9 -4 18 7 21 14 7 14 -6 0 -13 -4 -16 -10z"/>
<path d="M5162 1854 c1 -9 9 -19 16 -22 9 -3 13 2 10 14 -1 9 -9 19 -16 22 -9
3 -13 -2 -10 -14z"/>
<path d="M461 1844 c0 -11 3 -14 6 -6 3 7 2 16 -1 19 -3 4 -6 -2 -5 -13z"/>
<path d="M5280 1850 c0 -5 4 -10 9 -10 6 0 13 5 16 10 3 6 -1 10 -9 10 -9 0
-16 -4 -16 -10z"/>
<path d="M3023 1819 c-6 -16 -8 -29 -3 -29 4 0 8 -11 8 -25 0 -14 -5 -25 -10
-25 -5 0 -6 -4 -3 -10 3 -5 13 -10 22 -10 9 0 13 3 10 6 -3 4 -3 14 2 23 5 9
11 32 15 52 5 30 3 37 -12 41 -14 4 -22 -3 -29 -23z"/>
<path d="M1770 1799 c0 -5 5 -7 10 -4 6 3 10 8 10 11 0 2 -4 4 -10 4 -5 0 -10
-5 -10 -11z"/>
<path d="M2553 1792 c-3 -12 -9 -22 -14 -22 -5 0 -9 -4 -9 -10 0 -5 5 -10 10
-10 12 0 33 50 25 58 -3 4 -8 -4 -12 -16z"/>
<path d="M5370 1801 c0 -5 5 -13 10 -16 6 -3 10 -2 10 4 0 5 -4 13 -10 16 -5
3 -10 2 -10 -4z"/>
<path d="M5152 1760 c-14 -23 -15 -30 -3 -30 8 0 24 41 18 47 -2 1 -8 -7 -15
-17z"/>
<path d="M2505 1760 c-3 -5 -1 -10 4 -10 6 0 11 5 11 10 0 6 -2 10 -4 10 -3 0
-8 -4 -11 -10z"/>
<path d="M1926 1745 c-3 -8 -1 -15 3 -15 5 0 11 7 15 15 3 8 1 15 -3 15 -5 0
-11 -7 -15 -15z"/>
<path d="M1880 1729 c0 -5 5 -7 10 -4 6 3 10 8 10 11 0 2 -4 4 -10 4 -5 0 -10
-5 -10 -11z"/>
<path d="M2525 1730 c-4 -6 3 -10 14 -10 25 0 27 6 6 13 -8 4 -17 2 -20 -3z"/>
<path d="M2004 1723 c3 -6 2 -14 -4 -18 -12 -8 -13 -35 -1 -35 14 0 21 44 9
55 -8 7 -9 6 -4 -2z"/>
<path d="M2045 1721 c11 -5 14 -10 8 -10 -19 -1 -16 -21 3 -21 23 0 13 34 -11
37 -20 3 -20 3 0 -6z"/>
<path d="M2450 1720 c-12 -8 -12 -10 2 -15 20 -8 38 1 37 18 0 9 -2 9 -6 0 -2
-7 -9 -13 -14 -13 -6 0 -7 5 -4 10 8 12 4 12 -15 0z"/>
<path d="M2797 1723 c-13 -12 -7 -23 13 -23 11 0 20 -5 20 -11 0 -5 5 -7 10
-4 15 9 2 25 -21 25 -11 0 -17 5 -14 10 7 11 2 13 -8 3z"/>
<path d="M1917 1700 c4 -15 0 -20 -13 -20 -11 0 -14 -3 -8 -9 12 -11 92 -26
81 -14 -5 4 -13 9 -18 9 -5 1 -14 2 -20 3 -18 2 1 21 21 21 14 0 18 5 13 16
-3 9 -8 12 -12 5 -4 -6 -12 -7 -21 -1 -23 15 -29 12 -23 -10z"/>
<path d="M2100 1699 c0 -11 5 -17 10 -14 6 3 10 13 10 21 0 8 -4 14 -10 14 -5
0 -10 -9 -10 -21z"/>
<path d="M2879 1703 c8 -16 21 -23 43 -23 26 0 30 -3 25 -21 -4 -16 -3 -18 8
-9 9 8 14 7 19 -5 6 -17 36 -21 36 -5 0 6 -7 10 -15 10 -8 0 -15 9 -15 20 0
11 -3 19 -7 18 -14 -3 -78 14 -92 26 -12 9 -12 8 -2 -11z"/>
<path d="M3805 1710 c3 -5 8 -10 11 -10 2 0 4 5 4 10 0 6 -5 10 -11 10 -5 0
-7 -4 -4 -10z"/>
<path d="M1885 1700 c-3 -5 1 -10 10 -10 9 0 13 5 10 10 -3 6 -8 10 -10 10 -2
0 -7 -4 -10 -10z"/>
<path d="M1785 1680 c3 -5 8 -10 11 -10 2 0 4 5 4 10 0 6 -5 10 -11 10 -5 0
-7 -4 -4 -10z"/>
<path d="M2447 1683 c-4 -3 -7 -11 -7 -17 0 -6 5 -5 12 2 6 6 9 14 7 17 -3 3
-9 2 -12 -2z"/>
<path d="M1828 1653 c3 -16 7 -23 9 -17 2 6 15 9 30 6 18 -3 24 -1 19 7 -4 6
-16 11 -27 11 -10 0 -19 5 -19 10 0 6 -4 10 -9 10 -4 0 -6 -12 -3 -27z"/>
<path d="M2365 1670 c3 -5 8 -10 11 -10 2 0 4 5 4 10 0 6 -5 10 -11 10 -5 0
-7 -4 -4 -10z"/>
<path d="M2770 1670 c0 -5 7 -10 16 -10 8 0 12 5 9 10 -3 6 -10 10 -16 10 -5
0 -9 -4 -9 -10z"/>
<path d="M3010 1669 c0 -5 5 -7 10 -4 6 3 10 8 10 11 0 2 -4 4 -10 4 -5 0 -10
-5 -10 -11z"/>
<path d="M4880 1670 c-11 -7 -1 -10 35 -9 37 0 45 3 30 9 -27 12 -47 12 -65 0z"/>
<path d="M4987 1661 c3 -12 10 -21 15 -21 13 0 6 32 -9 37 -7 3 -9 -3 -6 -16z"/>
<path d="M5380 1670 c0 -5 5 -10 10 -10 6 0 10 5 10 10 0 6 -4 10 -10 10 -5 0
-10 -4 -10 -10z"/>
<path d="M5230 1646 c0 -9 5 -16 10 -16 6 0 10 4 10 9 0 6 -4 13 -10 16 -5 3
-10 -1 -10 -9z"/>
<path d="M1911 1634 c0 -11 3 -14 6 -6 3 7 2 16 -1 19 -3 4 -6 -2 -5 -13z"/>
<path d="M2345 1639 c-9 -14 0 -22 18 -17 13 2 13 5 2 15 -10 9 -16 9 -20 2z"/>
<path d="M3210 1641 c0 -5 -14 -11 -31 -15 -47 -9 -143 -112 -157 -169 -17
-67 -15 -71 17 -38 16 17 41 33 54 36 19 5 23 11 19 27 -4 16 -2 19 8 13 9 -5
11 -4 6 4 -7 11 -27 3 -46 -20 -3 -3 -15 -12 -28 -18 -22 -12 -23 -11 -13 7 5
10 28 35 51 55 22 21 34 37 28 37 -7 1 2 7 20 15 18 8 31 19 27 25 -3 5 3 10
13 10 11 0 30 9 43 20 20 16 21 19 7 20 -10 0 -18 -4 -18 -9z"/>
<path d="M4911 1634 c0 -11 3 -14 6 -6 3 7 2 16 -1 19 -3 4 -6 -2 -5 -13z"/>
<path d="M1613 1625 c-9 -10 -8 -17 2 -32 8 -11 11 -23 8 -27 -3 -3 1 -6 11
-6 9 0 15 4 11 9 -3 5 -1 12 5 16 16 10 12 28 -4 22 -10 -4 -13 -1 -10 7 7 19
-9 27 -23 11z"/>
<path d="M1978 1633 c7 -3 16 -2 19 1 4 3 -2 6 -13 5 -11 0 -14 -3 -6 -6z"/>
<path d="M2010 1626 c0 -9 5 -16 10 -16 6 0 10 4 10 9 0 6 -4 13 -10 16 -5 3
-10 -1 -10 -9z"/>
<path d="M5375 1630 c-3 -5 -1 -10 4 -10 6 0 11 5 11 10 0 6 -2 10 -4 10 -3 0
-8 -4 -11 -10z"/>
<path d="M2764 1619 c-3 -5 6 -9 20 -9 31 0 34 6 6 13 -11 3 -23 1 -26 -4z"/>
<path d="M1855 1610 c-3 -5 -2 -10 4 -10 5 0 13 5 16 10 3 6 2 10 -4 10 -5 0
-13 -4 -16 -10z"/>
<path d="M1930 1599 c0 -19 60 -33 61 -15 0 6 5 2 10 -9 l9 -20 -3 20 c-2 16
-9 19 -31 17 -16 -2 -32 2 -37 10 -7 10 -9 9 -9 -3z"/>
<path d="M2880 1600 c0 -5 7 -7 15 -4 8 4 15 8 15 10 0 2 -7 4 -15 4 -8 0 -15
-4 -15 -10z"/>
<path d="M1831 1588 c0 -10 8 -22 18 -28 27 -14 34 -13 19 4 -7 8 -16 12 -20
10 -3 -2 -9 4 -11 13 -4 16 -5 17 -6 1z"/>
<path d="M2024 1586 c-3 -8 4 -24 15 -35 25 -25 31 -26 31 -6 0 8 -5 15 -11
15 -5 0 -7 5 -4 10 3 6 1 10 -5 10 -6 0 -8 5 -5 10 3 6 1 10 -5 10 -6 0 -13
-6 -16 -14z"/>
<path d="M3285 1590 c-3 -6 1 -7 9 -4 18 7 21 14 7 14 -6 0 -13 -4 -16 -10z"/>
<path d="M1674 1582 c-9 -5 -8 -10 2 -19 8 -8 15 -9 19 -3 3 6 18 10 33 11
l27 1 -25 8 c-33 11 -43 11 -56 2z"/>
<path d="M1773 1583 c-7 -2 -13 -11 -13 -19 0 -8 -7 -14 -15 -14 -8 0 -15 -7
-15 -15 0 -17 15 -18 45 -4 18 8 17 9 -5 5 -21 -4 -23 -3 -9 7 9 7 17 17 18
22 1 6 9 9 17 7 8 -2 14 2 14 8 0 10 -16 12 -37 3z"/>
<path d="M2972 1580 c9 -6 15 -17 12 -25 -4 -9 0 -15 10 -15 23 0 4 44 -20 48
-17 2 -18 2 -2 -8z"/>
<path d="M1880 1569 c20 -20 48 -30 55 -20 2 5 -3 11 -13 14 -9 2 -26 8 -37
13 -18 7 -18 6 -5 -7z"/>
<path d="M2095 1570 c3 -5 11 -10 16 -10 6 0 7 5 4 10 -3 6 -11 10 -16 10 -6
0 -7 -4 -4 -10z"/>
<path d="M2911 1561 c-10 -7 -8 -10 8 -16 27 -8 36 -2 18 13 -7 6 -18 7 -26 3z"/>
<path d="M2620 1544 c0 -8 5 -12 10 -9 6 3 10 1 10 -6 0 -7 2 -10 5 -7 8 7 -5
38 -16 38 -5 0 -9 -7 -9 -16z"/>
<path d="M5300 1550 c0 -6 11 -15 24 -21 13 -6 31 -26 39 -45 23 -47 37 -43
37 10 0 49 -13 65 -36 45 -13 -11 -18 -10 -25 4 -11 18 -39 23 -39 7z"/>
<path d="M1970 1540 c0 -5 4 -10 9 -10 6 0 13 5 16 10 3 6 -1 10 -9 10 -9 0
-16 -4 -16 -10z"/>
<path d="M1816 1525 c4 -8 10 -15 15 -15 4 0 6 7 3 15 -4 8 -10 15 -15 15 -4
0 -6 -7 -3 -15z"/>
<path d="M2010 1530 c0 -5 5 -10 11 -10 5 0 7 5 4 10 -3 6 -8 10 -11 10 -2 0
-4 -4 -4 -10z"/>
<path d="M3151 1514 c0 -11 3 -14 6 -6 3 7 2 16 -1 19 -3 4 -6 -2 -5 -13z"/>
<path d="M2037 1500 c-4 -15 0 -20 13 -20 10 0 21 -6 23 -12 4 -10 6 -10 6 0
1 7 -7 22 -18 33 l-18 20 -6 -21z"/>
<path d="M2950 1510 c-9 -6 -10 -10 -3 -10 6 0 15 5 18 10 8 12 4 12 -15 0z"/>
<path d="M2981 1510 c-1 -9 3 -20 9 -26 7 -7 -3 -9 -28 -6 -47 6 -39 -3 11
-11 34 -5 37 -4 37 19 0 14 -4 23 -9 20 -5 -4 -12 0 -14 6 -4 9 -6 8 -6 -2z"/>
<path d="M1760 1501 c0 -16 25 -27 65 -30 35 -2 38 -1 25 12 -17 16 -90 30
-90 18z"/>
<path d="M1867 1486 c5 -24 38 -42 49 -25 3 5 -2 9 -11 9 -9 0 -19 9 -22 20
-8 28 -21 25 -16 -4z"/>
<path d="M1978 1503 c6 -2 12 -9 12 -15 0 -6 -6 -8 -13 -5 -8 3 -20 1 -28 -5
-11 -8 -11 -9 3 -4 10 3 20 1 23 -4 4 -6 11 -10 16 -10 6 0 8 4 4 9 -3 5 -1
12 5 16 18 11 11 25 -12 24 -13 0 -17 -3 -10 -6z"/>
<path d="M2875 1501 c-3 -5 0 -13 6 -17 7 -4 9 -3 5 4 -3 6 2 13 11 15 16 4
16 5 1 6 -9 0 -19 -3 -23 -8z"/>
<path d="M2126 1483 c-6 -14 -5 -15 5 -6 7 7 10 15 7 18 -3 3 -9 -2 -12 -12z"/>
<path d="M2610 1480 c0 -5 5 -10 11 -10 5 0 7 5 4 10 -3 6 -8 10 -11 10 -2 0
-4 -4 -4 -10z"/>
<path d="M4946 1472 c-15 -25 -25 -62 -16 -62 6 0 10 7 10 15 0 17 16 20 25 5
3 -5 13 -10 21 -10 8 0 14 5 14 10 0 6 -9 10 -20 10 -12 0 -17 5 -14 14 6 16
-12 31 -20 18z"/>
<path d="M2025 1460 c3 -5 10 -10 16 -10 5 0 9 5 9 10 0 6 -7 10 -16 10 -8 0
-12 -4 -9 -10z"/>
<path d="M1950 1450 c0 -5 5 -10 11 -10 5 0 7 5 4 10 -3 6 -8 10 -11 10 -2 0
-4 -4 -4 -10z"/>
<path d="M2838 1453 c7 -3 16 -2 19 1 4 3 -2 6 -13 5 -11 0 -14 -3 -6 -6z"/>
<path d="M2578 1443 c6 -2 18 -2 25 0 6 3 1 5 -13 5 -14 0 -19 -2 -12 -5z"/>
<path d="M1927 1420 c3 -10 8 -19 12 -18 15 4 91 -15 97 -23 3 -5 -1 -9 -9 -9
-16 0 -32 -29 -21 -39 4 -3 9 0 11 7 3 6 9 12 15 12 5 0 16 7 25 16 14 14 14
16 -3 29 -18 13 -18 14 -1 15 42 0 2 29 -42 30 -11 0 -11 -3 -1 -15 12 -14 8
-15 -26 -12 -21 3 -40 10 -42 16 -7 20 -20 12 -15 -9z"/>
<path d="M2296 1414 c-4 -14 -5 -28 -3 -31 3 -2 8 8 11 23 4 14 5 28 3 31 -3
2 -8 -8 -11 -23z"/>
<path d="M2573 1423 c9 -2 23 -2 30 0 6 3 -1 5 -18 5 -16 0 -22 -2 -12 -5z"/>
<path d="M2839 1422 c11 -8 11 -10 0 -15 -10 -4 -7 -8 9 -12 12 -4 22 -12 22
-17 0 -5 5 -6 10 -3 16 10 12 25 -7 25 -15 0 -16 2 -3 10 9 6 10 10 3 10 -6 0
-20 3 -30 6 -13 4 -15 3 -4 -4z"/>
<path d="M2926 1414 c-3 -8 0 -14 7 -15 7 -1 1 -4 -13 -9 -24 -7 -24 -8 -5
-15 11 -5 23 -13 27 -19 5 -7 8 -7 8 2 0 6 5 12 10 12 6 0 10 -7 10 -15 0 -8
5 -15 10 -15 6 0 10 9 10 20 0 14 -7 20 -21 20 -27 0 -19 24 9 28 34 5 26 17
-12 19 -22 1 -36 -4 -40 -13z"/>
<path d="M5307 1413 c-3 -5 -2 -15 2 -22 5 -7 11 -9 14 -4 3 5 2 15 -2 22 -5
7 -11 9 -14 4z"/>
<path d="M1596 1386 c3 -9 11 -16 16 -16 13 0 5 23 -10 28 -7 2 -10 -2 -6 -12z"/>
<path d="M1806 1386 c7 -17 44 -22 44 -6 0 6 -4 10 -9 10 -5 0 -17 3 -25 6
-12 5 -15 2 -10 -10z"/>
<path d="M3592 1370 c0 -14 2 -19 5 -12 2 6 2 18 0 25 -3 6 -5 1 -5 -13z"/>
<path d="M5357 1383 c-4 -3 -7 -16 -6 -27 0 -19 1 -19 10 3 10 24 8 36 -4 24z"/>
<path d="M2580 1369 c0 -6 -7 -9 -15 -5 -9 3 -15 0 -15 -9 0 -7 -8 -16 -17
-18 -13 -3 -12 -5 5 -6 13 0 21 -5 18 -10 -4 -5 3 -7 14 -4 15 4 18 9 10 18
-9 11 -6 12 12 8 18 -4 20 -3 8 6 -14 10 -7 16 13 12 5 -1 6 3 2 9 -8 13 -35
13 -35 -1z"/>
<path d="M1868 1363 c6 -2 18 -2 25 0 6 3 1 5 -13 5 -14 0 -19 -2 -12 -5z"/>
<path d="M1930 1361 c0 -10 50 -25 57 -18 2 3 -10 9 -26 15 -17 6 -31 7 -31 3z"/>
<path d="M2508 1363 c7 -3 16 -2 19 1 4 3 -2 6 -13 5 -11 0 -14 -3 -6 -6z"/>
<path d="M4841 1320 c-31 -70 -61 -147 -74 -195 -5 -22 -13 -42 -16 -45 -8 -6
-11 -40 -15 -142 -2 -48 -8 -84 -17 -94 -13 -16 -11 -17 13 -12 15 3 29 0 31
-6 2 -6 7 -8 11 -5 4 3 2 18 -3 32 -10 27 2 91 19 102 6 4 10 17 10 30 0 13 5
27 10 30 6 3 10 -2 10 -12 0 -11 4 -23 10 -29 6 -6 6 -21 1 -41 -9 -31 -6 -43
12 -43 5 0 7 7 3 15 -7 19 1 19 20 1 16 -16 19 -36 5 -36 -5 0 -11 -9 -14 -20
-3 -11 -1 -18 4 -14 13 8 11 -20 -3 -34 -16 -16 -1 -16 15 0 7 6 11 24 9 40
-3 21 0 28 12 28 15 0 15 3 0 38 -11 24 -18 71 -19 138 -2 56 -8 110 -13 121
-7 12 -7 24 0 36 5 10 7 29 4 42 -3 13 -2 27 4 30 12 7 13 65 2 83 -6 8 -16
-4 -31 -38z m8 -222 c0 -7 -4 -22 -9 -33 -7 -16 -8 -14 -7 12 1 18 5 33 10 33
4 0 7 -6 6 -12z"/>
<path d="M2850 1351 c0 -15 38 -20 44 -5 4 10 -2 14 -19 14 -14 0 -25 -4 -25
-9z"/>
<path d="M2050 1335 c0 -8 5 -15 10 -15 6 0 10 7 10 15 0 8 -4 15 -10 15 -5 0
-10 -7 -10 -15z"/>
<path d="M2923 1329 c9 -5 15 -14 12 -20 -4 -5 -3 -9 0 -9 7 0 39 29 33 31 -2
0 -16 3 -33 5 -25 3 -27 2 -12 -7z"/>
<path d="M3628 1333 c7 -3 16 -2 19 1 4 3 -2 6 -13 5 -11 0 -14 -3 -6 -6z"/>
<path d="M3678 1323 c7 -3 16 -2 19 1 4 3 -2 6 -13 5 -11 0 -14 -3 -6 -6z"/>
<path d="M5320 1316 c0 -8 -3 -23 -7 -33 -6 -16 -5 -16 10 -4 18 15 23 51 7
51 -5 0 -10 -6 -10 -14z"/>
<path d="M2885 1310 c3 -5 14 -10 23 -10 15 0 15 2 2 10 -20 13 -33 13 -25 0z"/>
<path d="M1905 1300 c27 -12 35 -12 35 0 0 6 -12 10 -27 9 -25 0 -26 -1 -8 -9z"/>
<path d="M2047 1290 c-3 -13 0 -20 8 -20 7 0 12 7 11 15 -4 24 -13 27 -19 5z"/>
<path d="M2505 1300 c-3 -5 1 -10 9 -10 9 0 16 5 16 10 0 6 -4 10 -9 10 -6 0
-13 -4 -16 -10z"/>
<path d="M1705 1290 c3 -5 8 -10 11 -10 2 0 4 5 4 10 0 6 -5 10 -11 10 -5 0
-7 -4 -4 -10z"/>
<path d="M1765 1290 c-8 -13 20 -24 36 -15 8 6 7 10 -2 16 -18 11 -26 11 -34
-1z"/>
<path d="M3123 1293 c-44 -6 -42 -23 2 -23 24 0 35 5 35 15 0 8 -1 14 -2 13
-2 0 -18 -3 -35 -5z"/>
<path d="M1834 1274 c3 -9 6 -18 6 -20 0 -2 20 -4 45 -4 25 0 45 4 45 10 0 5
-7 7 -15 4 -8 -3 -24 1 -37 10 -29 21 -52 21 -44 0z"/>
<path d="M1995 1280 c-3 -5 -15 -10 -26 -10 -10 0 -19 -7 -19 -15 0 -8 -7 -15
-15 -15 -8 0 -15 -3 -15 -7 0 -5 19 -9 43 -11 30 -1 38 1 27 8 -13 8 -12 10 3
10 10 0 17 8 17 19 0 11 6 22 13 24 7 3 6 6 -5 6 -9 1 -20 -3 -23 -9z"/>
<path d="M4906 1275 c-3 -8 -1 -27 4 -41 6 -14 10 -45 10 -70 0 -24 4 -44 10
-44 5 0 9 36 8 85 -1 60 -5 85 -14 85 -6 0 -14 -7 -18 -15z"/>
<path d="M1621 1273 c30 -15 69 -51 69 -64 0 -11 2 -11 8 -1 5 7 17 10 28 7
10 -3 1 3 -20 13 -31 14 -36 20 -23 25 9 3 29 2 43 -3 35 -14 44 -12 38 4 -3
8 -13 15 -22 15 -9 0 -44 3 -77 6 -33 3 -53 2 -44 -2z"/>
<path d="M2408 1273 c7 -3 16 -2 19 1 4 3 -2 6 -13 5 -11 0 -14 -3 -6 -6z"/>
<path d="M5101 1264 c0 -11 3 -14 6 -6 3 7 2 16 -1 19 -3 4 -6 -2 -5 -13z"/>
<path d="M1605 1249 c-9 -14 0 -22 18 -17 13 2 13 5 2 15 -10 9 -16 9 -20 2z"/>
<path d="M1786 1252 c-3 -6 -1 -14 5 -17 14 -9 20 -2 10 14 -6 8 -11 9 -15 3z"/>
<path d="M2029 1260 c0 -3 -2 -12 -4 -21 -2 -12 3 -15 21 -11 23 4 35 32 14
32 -5 0 -10 -6 -10 -12 0 -9 -4 -8 -10 2 -5 8 -10 13 -11 10z"/>
<path d="M3615 1250 c3 -5 14 -10 23 -10 15 0 15 2 2 10 -20 13 -33 13 -25 0z"/>
<path d="M5141 1242 c-6 -12 -11 -27 -11 -34 1 -7 8 0 16 15 9 16 13 31 11 34
-3 2 -10 -4 -16 -15z"/>
<path d="M3068 1233 c7 -3 16 -2 19 1 4 3 -2 6 -13 5 -11 0 -14 -3 -6 -6z"/>
<path d="M656 1223 c-7 -7 24 -32 42 -33 7 0 10 4 7 10 -9 15 -41 30 -49 23z"/>
<path d="M2560 1210 c0 -5 5 -10 11 -10 5 0 7 5 4 10 -3 6 -8 10 -11 10 -2 0
-4 -4 -4 -10z"/>
<path d="M3550 1210 c0 -5 5 -10 10 -10 6 0 10 5 10 10 0 6 -4 10 -10 10 -5 0
-10 -4 -10 -10z"/>
<path d="M5320 1209 c0 -5 5 -7 10 -4 6 3 10 8 10 11 0 2 -4 4 -10 4 -5 0 -10
-5 -10 -11z"/>
<path d="M2030 1189 c0 -11 -4 -17 -10 -14 -5 3 -10 -1 -10 -9 0 -9 3 -15 8
-15 19 3 33 -2 27 -10 -3 -5 -1 -12 4 -15 5 -3 12 1 15 10 10 27 7 44 -9 44
-18 0 -20 16 -2 23 7 3 5 6 -5 6 -12 1 -18 -6 -18 -20z"/>
<path d="M1713 1188 c7 -18 -7 -25 -17 -9 -8 12 -46 2 -46 -11 0 -6 6 -8 14
-5 9 4 20 -6 31 -29 12 -26 22 -34 43 -34 20 0 23 3 13 9 -8 5 -20 7 -26 5 -7
-3 -15 5 -18 17 -8 29 -2 35 17 20 24 -20 27 5 4 30 -15 17 -19 19 -15 7z"/>
<path d="M1769 1167 c10 -18 26 -33 37 -34 18 -3 18 -2 -1 6 -11 4 -21 13 -21
20 -1 6 -2 15 -3 20 0 5 -8 11 -16 14 -11 5 -10 -1 4 -26z"/>
<path d="M1950 1190 c0 -12 40 -34 47 -26 9 8 -17 36 -33 36 -8 0 -14 -4 -14
-10z"/>
<path d="M1015 1180 c3 -5 8 -10 11 -10 2 0 4 5 4 10 0 6 -5 10 -11 10 -5 0
-7 -4 -4 -10z"/>
<path d="M5160 1164 c0 -8 5 -12 10 -9 6 3 10 10 10 16 0 5 -4 9 -10 9 -5 0
-10 -7 -10 -16z"/>
<path d="M5220 1160 c0 -11 4 -20 9 -20 5 0 7 9 4 20 -3 11 -7 20 -9 20 -2 0
-4 -9 -4 -20z"/>
<path d="M816 1081 c50 -50 95 -91 100 -91 11 0 -145 158 -171 172 -10 6 22
-30 71 -81z"/>
<path d="M1878 1163 c6 -2 18 -2 25 0 6 3 1 5 -13 5 -14 0 -19 -2 -12 -5z"/>
<path d="M4640 1151 c0 -6 5 -13 10 -16 6 -3 10 1 10 9 0 9 -4 16 -10 16 -5 0
-10 -4 -10 -9z"/>
<path d="M2460 1131 c0 -5 11 -11 25 -13 28 -6 34 6 9 16 -22 8 -34 7 -34 -3z"/>
<path d="M1598 1121 c8 -4 14 -12 15 -17 1 -5 7 -7 12 -5 6 2 24 7 40 10 l30
7 -40 7 c-56 10 -74 9 -57 -2z"/>
<path d="M2703 1113 c-3 -10 -8 -21 -10 -25 -2 -5 3 -8 11 -8 10 0 13 6 9 17
-4 11 -3 14 5 9 7 -4 12 -3 12 3 0 19 -20 22 -27 4z"/>
<path d="M5181 1114 c0 -11 3 -14 6 -6 3 7 2 16 -1 19 -3 4 -6 -2 -5 -13z"/>
<path d="M5353 1119 c9 -6 17 -20 17 -31 0 -26 17 -13 22 17 2 15 -3 20 -27
22 -24 1 -27 0 -12 -8z"/>
<path d="M1971 1104 c0 -11 3 -14 6 -6 3 7 2 16 -1 19 -3 4 -6 -2 -5 -13z"/>
<path d="M1770 1100 c0 -5 5 -10 10 -10 6 0 10 5 10 10 0 6 -4 10 -10 10 -5 0
-10 -4 -10 -10z"/>
<path d="M1846 1101 c-4 -5 -2 -12 3 -15 5 -4 12 -2 15 3 4 5 2 12 -3 15 -5 4
-12 2 -15 -3z"/>
<path d="M5140 1098 c0 -8 -11 -28 -25 -44 -24 -28 -24 -29 -5 -32 11 -2 20
-10 20 -18 0 -8 5 -14 10 -14 12 0 13 17 1 24 -5 4 -5 23 0 47 6 23 7 44 4 47
-3 3 -5 -1 -5 -10z"/>
<path d="M1810 1090 c0 -5 5 -10 11 -10 5 0 7 5 4 10 -3 6 -8 10 -11 10 -2 0
-4 -4 -4 -10z"/>
<path d="M2440 1089 c0 -5 4 -7 10 -4 6 3 7 -1 4 -9 -3 -9 -15 -16 -26 -16
-17 0 -18 -3 -8 -15 10 -12 10 -15 -1 -15 -12 0 -12 -2 -1 -9 8 -4 13 -12 12
-17 0 -5 7 -11 16 -13 12 -2 15 2 11 13 -5 12 0 16 16 17 17 1 18 2 5 6 -19 5
-25 23 -8 23 6 0 9 3 9 8 -3 20 3 31 19 35 9 3 0 5 -20 6 -21 0 -38 -4 -38
-10z"/>
<path d="M5272 1088 c-6 -6 -12 -18 -12 -26 0 -8 -6 -12 -15 -8 -9 3 -15 0
-15 -9 0 -22 13 -18 39 9 24 25 27 58 3 34z"/>
<path d="M1597 1074 c3 -9 -1 -14 -12 -14 -9 0 -13 5 -10 10 3 6 2 10 -3 10
-10 0 -22 -23 -22 -42 0 -6 21 -9 50 -6 28 1 50 -1 50 -6 0 -6 5 -5 12 2 14
14 32 16 24 3 -5 -8 40 -22 68 -21 18 1 -66 40 -86 40 -10 0 -18 7 -18 15 0
18 14 19 42 4 16 -8 19 -8 16 2 -2 7 -18 14 -35 16 -26 3 -32 0 -37 -22 -4
-14 -10 -25 -15 -25 -5 0 -7 8 -4 19 3 11 -2 21 -11 24 -10 4 -13 1 -9 -9z"/>
<path d="M1720 1080 c0 -5 5 -10 11 -10 5 0 7 5 4 10 -3 6 -8 10 -11 10 -2 0
-4 -4 -4 -10z"/>
<path d="M5201 1074 c0 -11 3 -14 6 -6 3 7 2 16 -1 19 -3 4 -6 -2 -5 -13z"/>
<path d="M5315 1080 c-3 -5 -2 -10 4 -10 5 0 13 5 16 10 3 6 2 10 -4 10 -5 0
-13 -4 -16 -10z"/>
<path d="M2748 1073 c7 -3 16 -2 19 1 4 3 -2 6 -13 5 -11 0 -14 -3 -6 -6z"/>
<path d="M2631 1053 c-1 -13 6 -23 17 -26 9 -2 0 -3 -21 0 -25 2 -36 0 -32 -7
3 -5 15 -10 26 -10 10 0 19 -4 19 -10 0 -5 -8 -10 -17 -10 -11 0 -14 -3 -7 -8
6 -4 14 -14 17 -22 4 -12 6 -11 6 3 1 10 6 15 12 12 5 -4 21 5 35 20 20 22 22
28 10 40 -7 8 -23 11 -34 8 -14 -3 -22 1 -25 14 -4 15 -5 14 -6 -4z"/>
<path d="M2698 1063 c7 -3 16 -2 19 1 4 3 -2 6 -13 5 -11 0 -14 -3 -6 -6z"/>
<path d="M537 1053 c-8 -12 50 -65 105 -96 25 -15 72 -50 105 -79 32 -29 51
-44 43 -33 -19 26 -63 66 -123 112 -27 21 -66 53 -87 71 -21 18 -41 29 -43 25z"/>
<path d="M1765 1030 c3 -5 10 -10 16 -10 5 0 9 5 9 10 0 6 -7 10 -16 10 -8 0
-12 -4 -9 -10z"/>
<path d="M2725 1030 c3 -5 8 -10 11 -10 2 0 4 5 4 10 0 6 -5 10 -11 10 -5 0
-7 -4 -4 -10z"/>
<path d="M5340 1030 c0 -5 5 -10 11 -10 5 0 7 5 4 10 -3 6 -8 10 -11 10 -2 0
-4 -4 -4 -10z"/>
<path d="M5186 995 c-4 -19 -2 -43 3 -53 9 -14 10 -11 11 16 0 17 4 32 8 32 4
0 8 9 9 20 3 35 -24 22 -31 -15z"/>
<path d="M1620 1012 c0 -6 9 -12 20 -15 11 -3 20 -3 20 -1 0 2 -9 8 -20 14
-11 6 -20 7 -20 2z"/>
<path d="M1980 1000 c0 -13 5 -18 15 -14 8 4 22 0 31 -7 13 -10 17 -10 25 2
15 24 10 32 -16 27 -13 -3 -22 -1 -19 3 3 5 -4 9 -15 9 -14 0 -21 -6 -21 -20z"/>
<path d="M1690 1001 c0 -5 7 -11 15 -15 8 -3 15 -1 15 3 0 5 -7 11 -15 15 -8
3 -15 1 -15 -3z"/>
<path d="M5320 983 c0 -22 2 -25 10 -13 13 20 13 40 0 40 -5 0 -10 -12 -10
-27z"/>
<path d="M1840 980 c-6 -11 -8 -20 -6 -20 3 0 10 9 16 20 6 11 8 20 6 20 -3 0
-10 -9 -16 -20z"/>
<path d="M3535 990 c-3 -5 -1 -10 4 -10 6 0 11 5 11 10 0 6 -2 10 -4 10 -3 0
-8 -4 -11 -10z"/>
<path d="M4610 987 c0 -8 6 -20 14 -26 12 -10 13 -8 9 9 -7 25 -23 37 -23 17z"/>
<path d="M4923 989 c-13 -13 -7 -97 8 -113 16 -18 23 4 9 29 -9 16 -10 28 -3
37 5 7 7 23 4 36 -5 18 -9 20 -18 11z"/>
<path d="M1592 948 c2 -26 8 -50 15 -52 8 -3 10 1 6 12 -5 13 -3 14 7 5 7 -6
19 -9 27 -6 8 3 18 1 22 -5 4 -7 23 -14 41 -17 19 -3 28 -3 20 1 -41 16 -60
29 -60 41 0 17 -17 17 -23 1 -2 -7 -8 -9 -13 -5 -5 5 0 15 11 24 20 15 20 15
-2 9 -15 -5 -26 -1 -37 16 -16 22 -16 22 -14 -24z"/>
<path d="M1610 980 c0 -5 4 -10 9 -10 6 0 13 5 16 10 3 6 -1 10 -9 10 -9 0
-16 -4 -16 -10z"/>
<path d="M1760 980 c0 -5 7 -10 16 -10 8 0 12 5 9 10 -3 6 -10 10 -16 10 -5 0
-9 -4 -9 -10z"/>
<path d="M2410 971 c0 -6 5 -13 12 -17 7 -5 4 -10 -10 -15 -12 -5 -22 -14 -22
-21 0 -9 3 -9 10 2 8 13 10 12 10 -2 0 -10 -5 -18 -11 -18 -5 0 -7 -4 -4 -10
3 -5 21 -9 38 -9 18 1 24 3 15 6 -19 5 -25 33 -8 33 5 0 7 7 4 15 -4 8 -1 22
6 30 10 13 8 15 -14 15 -14 0 -26 -4 -26 -9z"/>
<path d="M5105 971 c-4 -7 1 -22 12 -33 16 -19 16 -21 1 -15 -25 9 -30 -7 -7
-26 18 -16 19 -16 19 2 0 11 7 26 15 35 19 19 19 30 0 22 -8 -3 -18 2 -23 11
-7 11 -11 12 -17 4z"/>
<path d="M5365 936 c3 -26 10 -55 16 -64 7 -13 9 -3 4 38 -8 68 -26 92 -20 26z"/>
<path d="M1740 960 c0 -5 7 -10 16 -10 8 0 12 5 9 10 -3 6 -10 10 -16 10 -5 0
-9 -4 -9 -10z"/>
<path d="M1800 959 c0 -5 5 -7 10 -4 6 3 10 8 10 11 0 2 -4 4 -10 4 -5 0 -10
-5 -10 -11z"/>
<path d="M1973 954 c-4 -11 -13 -24 -21 -30 -10 -7 -11 -13 -5 -17 6 -4 13 0
17 8 3 8 12 15 20 15 10 0 13 -6 9 -16 -4 -11 -8 -12 -13 -4 -12 19 -21 -17
-10 -42 5 -13 9 -17 9 -10 1 13 31 17 31 4 0 -5 -10 -14 -22 -20 -22 -10 -22
-11 5 -9 19 1 27 7 27 19 0 10 5 18 10 18 6 0 10 13 10 29 0 16 6 32 13 34 9
4 9 6 -1 6 -7 1 -10 6 -7 11 3 6 -3 10 -14 10 -10 0 -26 3 -35 6 -10 4 -18 -1
-23 -12z m60 -34 c-3 -11 -7 -20 -9 -20 -2 0 -4 9 -4 20 0 11 4 20 9 20 5 0 7
-9 4 -20z"/>
<path d="M5231 943 c-1 -21 -10 -38 -28 -53 -20 -15 -24 -23 -15 -32 8 -8 15
-8 27 2 13 10 15 9 16 -6 1 -11 0 -23 -2 -29 -1 -5 -3 -22 -4 -37 -2 -16 -3
-35 -4 -43 0 -8 -8 -15 -16 -15 -8 0 -15 -4 -15 -10 0 -5 7 -10 15 -10 8 0 15
-7 15 -15 0 -8 -4 -15 -10 -15 -5 0 -10 -11 -10 -25 0 -31 -20 -33 -21 -2 0
17 -3 14 -12 -12 -12 -36 -37 -54 -37 -28 0 9 -9 18 -19 22 -11 3 -18 12 -15
20 3 7 1 16 -5 20 -20 12 -12 -41 9 -61 12 -10 28 -27 38 -36 23 -24 38 -22
37 5 0 12 5 23 10 25 6 1 10 -13 10 -30 0 -18 3 -36 8 -39 4 -3 -6 -21 -23
-39 -29 -31 -56 -37 -31 -7 8 10 8 22 2 38 -7 18 -10 20 -10 6 -1 -10 -7 -20
-13 -22 -16 -7 -16 -71 0 -87 14 -14 16 -32 2 -23 -6 4 -10 -5 -10 -19 0 -14
-4 -26 -10 -26 -5 0 -10 7 -10 16 0 10 -6 14 -15 10 -12 -4 -15 3 -16 32 -2
35 -2 34 -10 -13 -5 -27 -11 -68 -14 -89 -7 -54 -15 -58 -13 -7 1 27 -4 46
-13 53 -11 8 -10 9 4 4 16 -5 17 -1 11 29 -4 23 -2 35 5 35 6 0 11 7 11 15 0
18 -16 20 -23 3 -4 -10 -6 -10 -6 0 -1 6 -5 12 -11 12 -5 0 -7 -13 -3 -31 3
-18 0 -41 -8 -56 -12 -22 -11 -27 3 -37 12 -9 14 -20 8 -51 -8 -44 -10 -44
-15 -1 -2 16 -8 33 -14 39 -5 5 -7 26 -5 46 5 30 4 33 -6 17 -7 -10 -10 -33
-7 -52 5 -31 4 -33 -14 -24 -20 11 -27 50 -9 50 15 0 12 26 -6 41 -13 11 -14
9 -9 -13 5 -18 2 -27 -9 -31 -21 -8 -10 -67 17 -88 18 -14 18 -20 7 -53 -12
-38 -6 -62 10 -36 5 8 13 11 17 6 4 -5 2 -11 -4 -13 -7 -3 -13 -11 -13 -19 0
-8 -10 -24 -21 -35 -18 -18 -20 -25 -10 -40 16 -27 14 -36 -11 -42 -24 -7 -41
10 -33 32 3 7 1 19 -5 26 -8 10 -8 15 1 20 6 4 15 1 20 -6 7 -11 9 -10 9 4 0
9 -4 17 -10 17 -5 0 -10 7 -10 15 0 13 4 14 20 5 11 -6 20 -8 20 -5 0 10 -39
44 -43 37 -2 -4 -2 -1 -1 6 6 20 -27 27 -38 8 -7 -13 -13 -15 -24 -6 -11 10
-11 14 1 27 8 8 15 24 15 37 0 22 17 46 32 46 4 0 8 -6 8 -14 0 -24 16 -26 17
-3 1 12 -9 36 -22 53 -14 18 -25 35 -25 38 0 11 36 6 48 -6 8 -8 12 -9 12 -1
0 6 -6 13 -12 16 -10 3 -10 8 2 21 12 16 12 19 -3 27 -9 6 -17 18 -17 29 0 10
-6 25 -13 32 -7 7 -16 21 -20 31 -6 16 -9 17 -22 3 -8 -8 -13 -20 -12 -28 2
-7 2 -10 0 -5 -3 4 -11 7 -18 7 -7 0 -16 7 -19 16 -4 11 -1 14 13 9 21 -6 34
24 20 46 -7 11 -9 9 -9 -6 0 -15 -3 -16 -12 -7 -9 9 -9 20 1 47 14 38 9 55
-17 55 -15 1 -16 2 -1 13 17 13 14 37 -5 37 -7 0 -17 12 -23 28 -11 26 -11 26
-5 -8 3 -19 10 -38 16 -42 8 -5 7 -8 -1 -8 -20 0 -15 -20 9 -40 22 -17 22 -19
5 -38 -10 -11 -15 -26 -11 -36 3 -9 1 -23 -6 -31 -7 -8 -10 -24 -7 -34 3 -11
0 -22 -7 -24 -7 -3 -3 -11 9 -21 20 -17 20 -17 -2 -11 -18 5 -21 3 -15 -17 3
-12 7 -17 10 -10 2 6 8 12 14 12 6 0 8 -7 4 -15 -3 -8 -2 -15 2 -15 5 0 6 -16
4 -36 -3 -20 -1 -39 4 -43 16 -11 31 -66 24 -86 -4 -12 -1 -30 8 -43 13 -20
13 -25 2 -32 -18 -11 -30 -3 -30 21 0 10 -4 19 -10 19 -5 0 -10 -11 -10 -24 0
-13 -3 -32 -7 -42 -5 -13 -3 -16 10 -11 10 4 17 2 17 -5 0 -6 7 -16 16 -22 12
-9 13 -17 5 -38 -7 -18 -7 -29 -1 -33 6 -4 10 2 11 12 0 16 1 16 10 -2 7 -16
8 -13 4 13 -4 30 -3 32 11 18 8 -9 23 -16 32 -17 12 0 10 -3 -6 -10 -13 -5
-22 -15 -19 -21 6 -18 58 -16 88 4 38 25 53 26 54 3 0 -19 8 -20 194 -23 l193
-2 -5 26 c-3 18 -1 22 6 15 6 -6 19 -11 29 -11 16 0 18 12 18 139 0 77 -4 151
-10 165 -6 16 -6 27 0 31 6 4 10 20 10 36 0 17 -4 28 -9 25 -13 -8 -44 31 -36
45 13 19 15 192 3 207 -8 9 -7 11 6 6 9 -3 16 -2 17 2 5 54 3 112 -3 108 -4
-3 -8 -14 -8 -25 0 -29 -18 -59 -35 -59 -8 0 -15 5 -15 10 0 6 -6 10 -13 10
-8 0 -14 7 -14 15 0 9 6 14 14 11 9 -4 11 -1 7 6 -5 8 -2 9 9 5 13 -5 17 -1
18 16 2 35 -2 51 -14 60 -9 5 -8 11 4 20 9 7 16 27 16 45 0 18 -4 28 -8 21 -4
-7 -12 -8 -20 -3 -12 7 -12 5 0 -9 11 -14 11 -21 -5 -44 -10 -16 -17 -42 -15
-59 3 -36 -14 -54 -24 -25 -3 10 -5 23 -4 27 4 26 -3 44 -17 44 -14 0 -14 3
-4 15 7 8 19 15 26 15 18 0 18 11 -2 46 -13 23 -15 25 -11 7 3 -15 0 -23 -8
-23 -8 0 -16 12 -18 28 -4 26 -4 25 -6 -5z m31 -153 c3 -17 1 -33 -4 -36 -4
-3 -8 11 -8 30 0 44 6 47 12 6z m68 -2 c0 -5 -4 -8 -10 -8 -5 0 -10 10 -10 23
0 18 2 19 10 7 5 -8 10 -18 10 -22z m-20 -109 c0 -6 -4 -7 -10 -4 -5 3 -10 11
-10 16 0 6 5 7 10 4 6 -3 10 -11 10 -16z m-67 -46 c-16 -6 -6 -53 13 -68 10
-7 11 -15 4 -25 -8 -13 -10 -12 -10 3 0 9 -11 23 -25 29 -17 8 -22 14 -13 19
14 9 18 48 6 55 -4 3 -5 10 -2 16 4 6 13 3 23 -7 12 -13 13 -19 4 -22z m66 -7
c-1 -16 -2 -17 -6 -3 -2 9 -11 17 -19 17 -8 0 -13 4 -9 10 10 16 35 -1 34 -24z
m-32 -18 c-3 -8 -6 -5 -6 6 -1 11 2 17 5 13 3 -3 4 -12 1 -19z m59 -25 c-10
-10 -19 5 -10 18 6 11 8 11 12 0 2 -7 1 -15 -2 -18z m3 -80 c-4 -27 -8 -54 -8
-60 -1 -7 -5 -13 -10 -13 -5 0 -7 9 -4 20 4 13 0 20 -10 20 -8 0 -18 7 -21 16
-10 26 -7 28 14 9 20 -18 20 -17 20 18 0 24 5 37 13 37 11 0 12 -11 6 -47z
m-493 -28 c-3 -8 -1 -15 4 -15 6 0 10 -9 10 -19 0 -11 5 -23 10 -26 6 -4 8
-11 4 -16 -3 -6 -14 -1 -24 11 -24 28 -33 25 -28 -10 5 -34 -3 -38 -23 -13
-11 12 -11 17 -2 20 7 3 17 22 23 44 6 21 16 39 21 39 6 0 9 -7 5 -15z m-51
-43 c-8 -8 -25 17 -25 38 0 9 6 6 16 -8 9 -13 13 -26 9 -30z m404 -29 c1 -46
6 -80 13 -84 6 -4 8 -15 4 -25 -7 -16 -10 -14 -26 16 -15 27 -19 30 -20 14 0
-11 6 -26 13 -33 10 -11 9 -13 -2 -9 -20 6 -34 60 -18 70 7 4 8 8 2 8 -5 0 -5
4 1 8 10 6 22 58 24 100 0 6 2 12 4 12 2 0 4 -35 5 -77z m47 45 c-9 -12 -16
-17 -16 -10 0 14 23 42 29 37 1 -2 -4 -14 -13 -27z m34 -28 c0 -5 -4 -10 -10
-10 -5 0 -10 5 -10 10 0 6 5 10 10 10 6 0 10 -4 10 -10z m46 -28 c-2 -4 -1
-27 4 -50 4 -24 4 -40 -1 -35 -14 14 -23 93 -10 93 7 0 10 -3 7 -8z m-540 -32
c0 -11 -4 -20 -8 -20 -4 0 -8 9 -8 20 0 11 4 20 8 20 4 0 8 -9 8 -20z m454 0
c0 -5 -5 -10 -11 -10 -5 0 -7 5 -4 10 3 6 8 10 11 10 2 0 4 -4 4 -10z m-420
-25 c10 -12 10 -15 -4 -15 -9 0 -16 7 -16 15 0 8 2 15 4 15 2 0 9 -7 16 -15z
m270 -25 c0 -5 -4 -10 -10 -10 -5 0 -10 5 -10 10 0 6 5 10 10 10 6 0 10 -4 10
-10z m181 -33 c-17 -17 -24 -1 -9 22 11 18 14 19 16 5 2 -9 -1 -21 -7 -27z
m-441 23 c0 -5 -4 -10 -10 -10 -5 0 -10 5 -10 10 0 6 5 10 10 10 6 0 10 -4 10
-10z m110 -10 c0 -5 8 -10 17 -10 9 0 14 -3 10 -6 -8 -8 -47 5 -47 17 0 5 5 9
10 9 6 0 10 -4 10 -10z m130 -30 c0 -11 -4 -20 -10 -20 -5 0 -10 9 -10 20 0
11 5 20 10 20 6 0 10 -9 10 -20z m290 -14 c9 -26 3 -66 -11 -66 -5 0 -9 20 -9
45 0 50 6 57 20 21z m-210 4 c0 -5 -4 -10 -10 -10 -5 0 -10 -7 -10 -16 0 -8
-4 -13 -9 -10 -13 9 -1 46 15 46 8 0 14 -4 14 -10z m170 0 c0 -5 -4 -10 -10
-10 -5 0 -10 5 -10 10 0 6 5 10 10 10 6 0 10 -4 10 -10z m-330 -46 c0 -23 -15
-7 -25 26 -7 22 -6 23 9 8 9 -9 16 -25 16 -34z m280 31 c0 -8 -2 -15 -4 -15
-2 0 -6 7 -10 15 -3 8 -1 15 4 15 6 0 10 -7 10 -15z m-88 -40 c3 -14 1 -28 -3
-31 -5 -3 -9 9 -9 25 0 38 6 40 12 6z m-112 7 c0 -5 -7 -9 -15 -9 -8 0 -15 4
-15 9 0 4 7 8 15 8 8 0 15 -4 15 -8z m196 -8 c-3 -9 -6 -25 -6 -37 0 -15 -3
-18 -11 -10 -12 12 -2 63 13 63 6 0 7 -7 4 -16z m-146 -4 c0 -5 -4 -10 -10
-10 -5 0 -10 5 -10 10 0 6 5 10 10 10 6 0 10 -4 10 -10z m120 -75 c0 -15 -17
-1 -27 22 -20 42 -15 52 7 15 11 -18 20 -35 20 -37z m90 44 c0 -5 -4 -9 -10
-9 -5 0 -10 7 -10 16 0 8 5 12 10 9 6 -3 10 -10 10 -16z m-276 2 c4 -5 -3 -7
-14 -4 -23 6 -26 13 -6 13 8 0 17 -4 20 -9z m-73 -34 c-1 -4 -1 -14 -1 -22 0
-8 -4 -15 -10 -15 -5 0 -10 12 -10 26 0 14 5 24 11 22 6 -2 10 -7 10 -11z m52
6 c-7 -2 -19 -2 -25 0 -7 3 -2 5 12 5 14 0 19 -2 13 -5z m56 -88 c0 -5 -9 1
-19 14 -11 13 -20 33 -20 45 1 17 4 14 20 -14 11 -19 19 -39 19 -45z m254 68
c-7 -2 -13 -18 -13 -34 0 -16 -4 -29 -9 -29 -5 0 -8 12 -8 28 2 27 13 42 32
41 6 0 4 -3 -2 -6z m-111 -35 c-7 -7 -12 -8 -12 -2 0 14 12 26 19 19 2 -3 -1
-11 -7 -17z m-382 -9 c0 -6 -4 -7 -10 -4 -5 3 -10 11 -10 16 0 6 5 7 10 4 6
-3 10 -11 10 -16z m150 -33 c0 -5 -7 -1 -15 10 -8 10 -14 24 -14 29 0 6 6 1
14 -9 8 -11 15 -24 15 -30z m177 28 c-3 -3 -12 -4 -19 -1 -8 3 -5 6 6 6 11 1
17 -2 13 -5z"/>
<path d="M1927 954 c-4 -4 -7 -14 -7 -23 0 -11 3 -12 11 -4 6 6 10 16 7 23 -2
6 -7 8 -11 4z"/>
<path d="M3501 944 c0 -11 3 -14 6 -6 3 7 2 16 -1 19 -3 4 -6 -2 -5 -13z"/>
<path d="M1838 943 c7 -3 16 -2 19 1 4 3 -2 6 -13 5 -11 0 -14 -3 -6 -6z"/>
<path d="M3554 935 c8 -8 17 -15 20 -15 3 0 6 7 6 15 0 9 -9 15 -21 15 -18 0
-19 -2 -5 -15z"/>
<path d="M1691 933 c-1 -18 19 -27 32 -13 9 10 8 12 -5 7 -9 -3 -19 -1 -22 6
-3 9 -5 9 -5 0z"/>
<path d="M5154 915 c-3 -8 -4 -20 -2 -27 3 -7 -1 -24 -8 -37 -13 -24 -10 -46
5 -36 5 2 7 -7 5 -20 -1 -14 2 -27 7 -31 5 -3 9 7 10 23 1 15 3 54 5 86 3 54
-9 77 -22 42z"/>
<path d="M2538 913 c7 -3 16 -2 19 1 4 3 -2 6 -13 5 -11 0 -14 -3 -6 -6z"/>
<path d="M4796 904 c-9 -25 -7 -72 4 -79 6 -4 10 13 10 44 0 53 -4 62 -14 35z"/>
<path d="M1530 903 c0 -5 18 -16 41 -25 27 -11 39 -13 36 -5 -3 7 -10 11 -16
9 -6 -1 -14 5 -17 13 -6 15 -44 22 -44 8z"/>
<path d="M5000 896 c0 -9 7 -16 16 -16 17 0 14 22 -4 28 -7 2 -12 -3 -12 -12z"/>
<path d="M5044 876 c-9 -19 -9 -23 1 -19 14 5 28 43 17 43 -4 0 -12 -11 -18
-24z"/>
<path d="M1637 878 c-3 -8 5 -14 20 -14 13 -1 23 -1 21 0 -2 1 -10 7 -19 14
-13 10 -18 10 -22 0z"/>
<path d="M1750 870 c0 -5 -12 -11 -27 -11 -18 -1 -22 -3 -10 -6 10 -3 22 -16
28 -29 8 -24 29 -25 29 -3 0 6 -4 7 -10 4 -5 -3 -10 -2 -10 4 0 20 19 21 33 1
12 -18 15 -18 20 -5 4 8 3 15 -1 15 -5 0 -18 9 -30 20 -12 12 -22 16 -22 10z"/>
<path d="M1910 865 c7 -9 15 -13 17 -11 7 7 -7 26 -19 26 -6 0 -6 -6 2 -15z"/>
<path d="M3550 869 c0 -5 5 -7 10 -4 6 3 10 8 10 11 0 2 -4 4 -10 4 -5 0 -10
-5 -10 -11z"/>
<path d="M4641 864 c0 -11 3 -14 6 -6 3 7 2 16 -1 19 -3 4 -6 -2 -5 -13z"/>
<path d="M1826 855 c-3 -10 1 -15 13 -15 11 0 22 -6 24 -12 4 -10 6 -10 6 -1
1 7 8 10 16 7 8 -4 15 -1 15 5 0 6 -4 11 -10 11 -18 0 -25 2 -42 11 -11 6 -18
4 -22 -6z"/>
<path d="M4576 862 c-3 -5 -1 -22 4 -38 8 -29 8 -29 9 9 1 36 -3 45 -13 29z"/>
<path d="M4902 848 c-16 -16 -15 -28 3 -28 8 0 15 2 15 4 0 2 3 11 6 20 7 19
-7 21 -24 4z"/>
<path d="M5100 851 c0 -5 5 -13 10 -16 6 -3 10 -2 10 4 0 5 -4 13 -10 16 -5 3
-10 2 -10 -4z"/>
<path d="M489 843 c-2 -4 -20 -16 -39 -26 l-35 -17 43 6 c23 3 42 3 42 -1 0
-9 -23 -31 -40 -38 -8 -3 8 -3 35 0 44 5 77 18 64 25 -2 2 -18 16 -35 31 -18
16 -33 25 -35 20z"/>
<path d="M1670 829 c0 -5 -25 -9 -55 -9 -30 0 -55 -3 -55 -7 0 -5 28 -8 62 -8
47 0 62 -3 60 -13 -1 -8 2 -11 7 -8 5 3 7 16 4 27 -5 19 -3 20 18 14 13 -4 21
-4 17 0 -11 11 -58 15 -58 4z"/>
<path d="M2400 830 c0 -5 -7 -10 -15 -10 -8 0 -15 -9 -15 -20 0 -36 43 -22 52
18 4 15 2 22 -8 22 -8 0 -14 -4 -14 -10z"/>
<path d="M4977 814 c9 -15 19 -21 21 -15 4 13 -16 41 -29 41 -5 0 -2 -12 8
-26z"/>
<path d="M5050 826 c0 -9 4 -15 8 -13 4 1 19 -9 33 -23 31 -32 49 -36 49 -10
0 11 -4 20 -10 20 -5 0 -10 -5 -10 -11 0 -8 -5 -8 -15 1 -8 7 -15 19 -15 28 0
8 -3 12 -7 9 -3 -4 -12 -2 -20 4 -10 9 -13 8 -13 -5z"/>
<path d="M5194 806 c-7 -22 -8 -39 -2 -42 15 -10 20 2 16 41 l-3 37 -11 -36z"/>
<path d="M1826 810 c-17 -6 -18 -7 -3 -13 9 -3 19 -2 23 4 9 15 2 18 -20 9z"/>
<path d="M4528 813 c7 -3 16 -2 19 1 4 3 -2 6 -13 5 -11 0 -14 -3 -6 -6z"/>
<path d="M4769 797 c-19 -14 -14 -77 6 -77 7 0 24 -9 39 -21 14 -11 26 -16 26
-10 0 5 -6 14 -13 18 -23 15 -46 60 -40 82 6 24 4 25 -18 8z"/>
<path d="M4898 785 c-9 -19 -8 -31 1 -49 10 -17 10 -29 2 -43 -5 -11 -7 -24
-3 -28 4 -5 1 -5 -6 -1 -7 5 -17 18 -22 30 l-9 21 0 -22 c-1 -12 6 -29 16 -38
12 -12 13 -19 4 -24 -8 -5 -6 -13 9 -26 20 -18 20 -18 21 6 1 13 1 28 0 32 -2
12 42 -3 51 -17 5 -7 8 -5 8 6 0 9 -8 23 -19 30 -10 7 -21 29 -25 48 -3 19 -3
29 0 23 9 -20 46 -16 42 5 -2 12 -11 16 -32 14 -27 -4 -28 -2 -21 27 8 37 -1
41 -17 6z"/>
<path d="M665 790 c-3 -5 -1 -10 4 -10 6 0 11 5 11 10 0 6 -2 10 -4 10 -3 0
-8 -4 -11 -10z"/>
<path d="M4825 781 c-2 -5 2 -11 10 -15 8 -3 15 -16 15 -28 1 -20 2 -21 11 -6
7 13 5 22 -10 37 -11 11 -23 16 -26 12z"/>
<path d="M5015 779 c-11 -16 -1 -19 13 -3 7 8 8 14 3 14 -5 0 -13 -5 -16 -11z"/>
<path d="M5050 769 c0 -11 4 -18 10 -14 5 3 7 12 3 20 -7 21 -13 19 -13 -6z"/>
<path d="M2390 760 c8 -5 20 -10 25 -10 6 0 3 5 -5 10 -8 5 -19 10 -25 10 -5
0 -3 -5 5 -10z"/>
<path d="M995 740 c-4 -6 3 -10 14 -10 25 0 27 6 6 13 -8 4 -17 2 -20 -3z"/>
<path d="M2084 724 c9 -8 20 -12 26 -9 18 11 11 21 -16 23 -23 2 -24 0 -10
-14z"/>
<path d="M5120 730 c0 -5 5 -10 10 -10 6 0 10 5 10 10 0 6 -4 10 -10 10 -5 0
-10 -4 -10 -10z"/>
<path d="M1050 720 c8 -5 24 -9 35 -9 l20 0 -20 9 c-11 5 -27 9 -35 9 -13 1
-13 0 0 -9z"/>
<path d="M4660 721 c0 -6 5 -13 10 -16 6 -3 10 1 10 9 0 9 -4 16 -10 16 -5 0
-10 -4 -10 -9z"/>
<path d="M4990 719 c0 -5 5 -7 10 -4 6 3 10 8 10 11 0 2 -4 4 -10 4 -5 0 -10
-5 -10 -11z"/>
<path d="M4543 704 c-15 -15 -17 -34 -4 -34 8 0 24 41 18 46 -1 1 -8 -4 -14
-12z"/>
<path d="M1140 699 c0 -5 9 -9 20 -9 11 0 20 2 20 4 0 2 -9 6 -20 9 -11 3 -20
1 -20 -4z"/>
<path d="M5020 700 c0 -5 5 -10 11 -10 5 0 7 -5 4 -10 -4 -6 -10 -8 -14 -6
-14 9 -10 -40 6 -71 17 -32 20 -35 46 -37 6 -1 22 -12 33 -25 l21 -23 -2 23
c-1 13 -3 30 -4 37 0 7 -5 10 -11 7 -5 -3 -23 16 -39 42 -27 43 -28 49 -13 55
16 6 16 7 0 7 -10 1 -18 6 -18 11 0 6 -4 10 -10 10 -5 0 -10 -4 -10 -10z m40
-79 c0 -9 6 -23 13 -30 10 -10 8 -12 -8 -9 -11 2 -19 10 -17 17 1 7 -2 19 -8
25 -5 7 -7 16 -4 19 10 10 24 -2 24 -22z"/>
<path d="M1250 696 c0 -2 7 -6 15 -10 8 -3 15 -1 15 4 0 6 -7 10 -15 10 -8 0
-15 -2 -15 -4z"/>
<path d="M1328 683 c7 -3 16 -2 19 1 4 3 -2 6 -13 5 -11 0 -14 -3 -6 -6z"/>
<path d="M4490 672 c0 -14 6 -22 16 -22 14 0 15 3 3 18 -7 9 -15 19 -16 21 -2
2 -3 -5 -3 -17z"/>
<path d="M4621 664 c0 -11 3 -14 6 -6 3 7 2 16 -1 19 -3 4 -6 -2 -5 -13z"/>
<path d="M4800 672 c0 -4 7 -16 15 -26 15 -19 15 -19 15 1 0 11 -7 23 -15 27
-8 3 -15 2 -15 -2z"/>
<path d="M5393 640 c0 -25 2 -35 4 -22 2 12 2 32 0 45 -2 12 -4 2 -4 -23z"/>
<path d="M4982 645 c0 -16 2 -22 5 -12 2 9 2 23 0 30 -3 6 -5 -1 -5 -18z"/>
<path d="M5116 653 c-6 -14 -5 -15 5 -6 7 7 10 15 7 18 -3 3 -9 -2 -12 -12z"/>
<path d="M4460 625 c0 -8 5 -15 10 -15 6 0 10 7 10 15 0 8 -4 15 -10 15 -5 0
-10 -7 -10 -15z"/>
<path d="M4720 615 c-10 -12 -10 -15 3 -15 8 0 17 7 21 15 3 8 2 15 -3 15 -5
0 -14 -7 -21 -15z"/>
<path d="M4800 623 c0 -17 16 -31 27 -25 9 6 6 11 -7 20 -11 7 -20 9 -20 5z"/>
<path d="M4515 600 c-3 -5 1 -10 10 -10 9 0 13 5 10 10 -3 6 -8 10 -10 10 -2
0 -7 -4 -10 -10z"/>
<path d="M4615 600 c3 -5 8 -10 11 -10 2 0 4 5 4 10 0 6 -5 10 -11 10 -5 0 -7
-4 -4 -10z"/>
<path d="M4977 591 c-15 -5 -13 -9 13 -24 16 -10 30 -13 30 -8 0 6 -4 11 -9
11 -5 0 -11 6 -13 14 -2 8 -10 11 -21 7z"/>
<path d="M4460 579 c0 -5 5 -7 10 -4 6 3 10 8 10 11 0 2 -4 4 -10 4 -5 0 -10
-5 -10 -11z"/>
<path d="M2082 551 c-17 -48 -14 -63 4 -22 8 19 13 39 11 45 -2 6 -9 -5 -15
-23z"/>
<path d="M4427 550 c7 -43 6 -41 19 -26 9 10 7 19 -7 37 l-19 24 7 -35z"/>
<path d="M4491 564 c0 -11 3 -14 6 -6 3 7 2 16 -1 19 -3 4 -6 -2 -5 -13z"/>
<path d="M4540 570 c0 -5 5 -10 10 -10 6 0 10 5 10 10 0 6 -4 10 -10 10 -5 0
-10 -4 -10 -10z"/>
<path d="M4695 570 c3 -5 8 -10 11 -10 2 0 4 5 4 10 0 6 -5 10 -11 10 -5 0 -7
-4 -4 -10z"/>
<path d="M4820 564 c0 -8 5 -12 10 -9 6 3 10 10 10 16 0 5 -4 9 -10 9 -5 0
-10 -7 -10 -16z"/>
<path d="M4711 553 c-7 -8 -10 -17 -7 -20 9 -9 29 13 25 25 -2 6 -10 3 -18 -5z"/>
<path d="M4860 555 c-20 -24 -5 -28 21 -6 19 16 20 20 8 21 -9 0 -22 -7 -29
-15z"/>
<path d="M4930 545 c0 -8 4 -15 10 -15 5 0 7 7 4 15 -4 8 -8 15 -10 15 -2 0
-4 -7 -4 -15z"/>
<path d="M5030 550 c0 -5 4 -10 9 -10 5 0 13 -9 16 -20 3 -11 11 -20 17 -20 6
0 6 6 -2 15 -7 8 -9 15 -6 15 4 0 1 7 -8 15 -17 17 -26 19 -26 5z"/>
<path d="M4615 540 c3 -5 8 -10 11 -10 2 0 4 5 4 10 0 6 -5 10 -11 10 -5 0 -7
-4 -4 -10z"/>
<path d="M4896 542 c-12 -20 3 -85 24 -99 11 -8 20 -21 20 -29 0 -18 16 -18
23 0 3 8 -5 19 -19 27 -17 9 -24 19 -20 32 6 22 -19 84 -28 69z"/>
<path d="M4562 510 c0 -14 2 -19 5 -12 2 6 2 18 0 25 -3 6 -5 1 -5 -13z"/>
<path d="M4379 514 c-6 -41 -5 -55 7 -65 10 -8 13 -3 11 25 -2 32 -15 61 -18
40z"/>
<path d="M4501 504 c0 -11 3 -14 6 -6 3 7 2 16 -1 19 -3 4 -6 -2 -5 -13z"/>
<path d="M5384 497 c-2 -7 0 -24 5 -38 9 -22 10 -21 10 14 1 37 -5 48 -15 24z"/>
<path d="M2061 474 c0 -11 3 -14 6 -6 3 7 2 16 -1 19 -3 4 -6 -2 -5 -13z"/>
<path d="M4415 480 c3 -5 8 -10 11 -10 2 0 4 5 4 10 0 6 -5 10 -11 10 -5 0 -7
-4 -4 -10z"/>
<path d="M4951 481 c-12 -8 -12 -12 2 -26 16 -15 17 -15 17 9 0 29 0 29 -19
17z"/>
<path d="M5087 476 c-4 -10 -5 -21 -2 -24 9 -9 17 6 13 25 -3 17 -4 17 -11 -1z"/>
<path d="M4980 464 c0 -8 5 -12 10 -9 6 3 10 10 10 16 0 5 -4 9 -10 9 -5 0
-10 -7 -10 -16z"/>
<path d="M2051 434 c0 -11 3 -14 6 -6 3 7 2 16 -1 19 -3 4 -6 -2 -5 -13z"/>
<path d="M4552 393 c0 -10 -1 -24 -3 -32 -2 -7 1 -15 7 -17 6 -3 10 11 11 31
1 19 -3 35 -7 35 -5 0 -8 -8 -8 -17z"/>
<path d="M4701 394 c0 -11 3 -14 6 -6 3 7 2 16 -1 19 -3 4 -6 -2 -5 -13z"/>
<path d="M4622 308 c5 -15 28 -23 28 -10 0 5 -7 13 -16 16 -10 4 -14 1 -12 -6z"/>
<path d="M4520 269 c0 -5 5 -7 10 -4 6 3 10 8 10 11 0 2 -4 4 -10 4 -5 0 -10
-5 -10 -11z"/>
<path d="M4840 248 c0 -19 2 -20 10 -8 13 19 13 30 0 30 -5 0 -10 -10 -10 -22z"/>
<path d="M3490 229 c0 -5 5 -7 10 -4 6 3 10 8 10 11 0 2 -4 4 -10 4 -5 0 -10
-5 -10 -11z"/>
<path d="M4335 221 c3 -5 1 -12 -5 -16 -13 -8 -13 -72 1 -81 10 -6 9 -44 -2
-84 -3 -10 5 -16 24 -18 15 -2 25 -7 22 -12 -3 -6 14 -9 40 -8 25 1 45 6 45
11 0 4 -4 5 -10 2 -5 -3 -15 3 -22 15 -7 11 -19 20 -26 20 -8 0 -12 12 -10 35
1 19 5 35 8 35 3 0 15 -20 27 -43 12 -23 27 -41 34 -39 42 11 68 9 73 -4 4
-11 0 -13 -21 -8 -19 5 -24 3 -21 -7 3 -9 20 -14 46 -15 23 0 42 0 42 2 0 8
-49 54 -58 54 -5 0 -13 8 -16 17 -5 12 -9 14 -18 5 -7 -7 -16 -12 -22 -12 -5
0 -6 3 -3 7 4 3 -3 17 -15 30 -25 27 -18 30 16 7 35 -22 36 -4 2 31 -16 17
-26 25 -23 18 9 -14 -9 -27 -18 -13 -3 5 -14 10 -24 10 -27 0 -46 26 -32 44 9
11 8 15 -5 20 -23 9 -36 7 -29 -3z m40 -91 c-3 -5 -10 -10 -16 -10 -5 0 -9 5
-9 10 0 6 7 10 16 10 8 0 12 -4 9 -10z"/>
<path d="M4610 216 c0 -8 5 -18 10 -21 6 -3 10 3 10 14 0 12 -4 21 -10 21 -5
0 -10 -6 -10 -14z"/>
<path d="M4890 215 c0 -8 5 -15 10 -15 6 0 10 7 10 15 0 8 -4 15 -10 15 -5 0
-10 -7 -10 -15z"/>
<path d="M4485 210 c-3 -5 -1 -10 4 -10 6 0 11 5 11 10 0 6 -2 10 -4 10 -3 0
-8 -4 -11 -10z"/>
<path d="M1800 185 c-46 -26 -90 -43 -122 -50 -18 -4 -61 -22 -95 -41 -34 -19
-71 -34 -82 -34 -11 0 -23 -5 -27 -11 -3 -6 -25 -19 -48 -29 l-41 -19 83 0
c66 -1 90 3 110 17 36 25 115 66 178 92 48 20 100 70 87 84 -8 8 -13 7 -43 -9z"/>
<path d="M3443 173 c-3 -10 -8 -22 -10 -28 -3 -5 3 -1 11 9 16 20 21 36 11 36
-3 0 -8 -8 -12 -17z"/>
<path d="M4620 159 c0 -11 -4 -17 -10 -14 -5 3 -15 3 -21 0 -6 -4 4 -14 22
-23 36 -19 48 -39 24 -39 -8 0 -15 6 -15 14 0 7 -4 13 -10 13 -17 0 -11 -40 8
-47 9 -4 22 -14 29 -22 10 -14 12 -14 18 0 8 21 37 14 67 -16 l23 -23 1 38 c0
30 -3 36 -16 33 -11 -3 -25 6 -39 25 -24 34 -29 69 -6 38 15 -19 15 -19 15 1
0 30 -37 41 -55 16 -14 -17 -14 -17 -15 5 0 12 -4 22 -10 22 -5 0 -10 -9 -10
-21z"/>
<path d="M4533 136 c-16 -19 -4 -29 13 -11 8 7 14 16 14 19 0 10 -15 6 -27 -8z"/>
<path d="M3405 103 c-35 -47 -39 -59 -7 -23 17 19 31 38 32 43 0 11 -4 8 -25
-20z"/>
<path d="M4552 99 c2 -6 8 -10 13 -10 5 0 11 4 13 10 2 6 -4 11 -13 11 -9 0
-15 -5 -13 -11z"/>
<path d="M4895 60 c3 -5 8 -10 11 -10 2 0 4 5 4 10 0 6 -5 10 -11 10 -5 0 -7
-4 -4 -10z"/>
<path d="M4240 30 c0 -5 5 -10 10 -10 6 0 10 5 10 10 0 6 -4 10 -10 10 -5 0
-10 -4 -10 -10z"/>
</g>
</svg>
